<svg width="1280" height="852" viewBox="0 0 1280 852" fill="none" xmlns="http://www.w3.org/2000/svg">
<rect width="1280" height="852" fill="#8C5535"/>
<path d="M1280 852H0V729.425C34.4 752.472 551.5 829.97 1280 680V852Z" fill="#261B14"/>
<g clip-path="url(#clip0_73_467)">
<mask id="mask0_73_467" style="mask-type:luminance" maskUnits="userSpaceOnUse" x="309" y="429" width="13" height="15">
<path d="M312.958 443.287L309.309 429.996L321.401 432.393L312.958 443.287Z" fill="white"/>
</mask>
<g mask="url(#mask0_73_467)">
<path d="M312.958 443.287L309.309 429.996L321.401 432.393L312.958 443.287Z" fill="#003049" fill-opacity="0.08"/>
</g>
<mask id="mask1_73_467" style="mask-type:luminance" maskUnits="userSpaceOnUse" x="334" y="436" width="13" height="15">
<path d="M335.811 450.22L334.84 436.474L346.223 441.197L335.811 450.22Z" fill="white"/>
</mask>
<g mask="url(#mask1_73_467)">
<path d="M335.811 450.22L334.84 436.474L346.223 441.197L335.811 450.22Z" fill="#003049" fill-opacity="0.08"/>
</g>
<mask id="mask2_73_467" style="mask-type:luminance" maskUnits="userSpaceOnUse" x="356" y="447" width="13" height="15">
<path d="M356.87 461.48L358.602 447.808L368.855 454.659L356.87 461.48Z" fill="white"/>
</mask>
<g mask="url(#mask2_73_467)">
<path d="M356.87 461.48L358.602 447.808L368.855 454.659L356.87 461.48Z" fill="#003049" fill-opacity="0.08"/>
</g>
<mask id="mask3_73_467" style="mask-type:luminance" maskUnits="userSpaceOnUse" x="390" y="483" width="15" height="13">
<path d="M390.515 495.123L397.343 483.135L404.179 493.385L390.515 495.123Z" fill="white"/>
</mask>
<g mask="url(#mask3_73_467)">
<path d="M390.515 495.123L397.343 483.135L404.179 493.385L390.515 495.123Z" fill="#003049" fill-opacity="0.08"/>
</g>
<mask id="mask4_73_467" style="mask-type:luminance" maskUnits="userSpaceOnUse" x="401" y="505" width="15" height="13">
<path d="M415.499 517.15L401.75 516.168L410.776 505.762L415.499 517.15Z" fill="white"/>
</mask>
<g mask="url(#mask4_73_467)">
<path d="M415.499 517.15L401.75 516.168L410.776 505.762L415.499 517.15Z" fill="#003049" fill-opacity="0.08"/>
</g>
<mask id="mask5_73_467" style="mask-type:luminance" maskUnits="userSpaceOnUse" x="408" y="530" width="14" height="13">
<path d="M421.999 542.676L408.719 539.038L419.597 530.583L421.999 542.676Z" fill="white"/>
</mask>
<g mask="url(#mask5_73_467)">
<path d="M421.999 542.676L408.719 539.038L419.597 530.583L421.999 542.676Z" fill="#003049" fill-opacity="0.08"/>
</g>
<mask id="mask6_73_467" style="mask-type:luminance" maskUnits="userSpaceOnUse" x="408" y="582" width="14" height="14">
<path d="M419.597 595.026L408.719 586.591L421.999 582.947L419.597 595.026Z" fill="white"/>
</mask>
<g mask="url(#mask6_73_467)">
<path d="M419.597 595.026L408.719 586.591L421.999 582.947L419.597 595.026Z" fill="#003049" fill-opacity="0.08"/>
</g>
<mask id="mask7_73_467" style="mask-type:luminance" maskUnits="userSpaceOnUse" x="401" y="608" width="15" height="12">
<path d="M410.776 619.85L401.75 609.433L415.499 608.456L410.776 619.85Z" fill="white"/>
</mask>
<g mask="url(#mask7_73_467)">
<path d="M410.776 619.85L401.75 609.433L415.499 608.456L410.776 619.85Z" fill="#003049" fill-opacity="0.08"/>
</g>
<mask id="mask8_73_467" style="mask-type:luminance" maskUnits="userSpaceOnUse" x="390" y="630" width="15" height="13">
<path d="M397.343 642.482L390.515 630.511L404.179 632.23L397.343 642.482Z" fill="white"/>
</mask>
<g mask="url(#mask8_73_467)">
<path d="M397.343 642.482L390.515 630.511L404.179 632.23L397.343 642.482Z" fill="#003049" fill-opacity="0.08"/>
</g>
<mask id="mask9_73_467" style="mask-type:luminance" maskUnits="userSpaceOnUse" x="356" y="664" width="13" height="14">
<path d="M358.602 677.797L356.87 664.128L368.855 670.959L358.602 677.797Z" fill="white"/>
</mask>
<g mask="url(#mask9_73_467)">
<path d="M358.602 677.797L356.87 664.128L368.855 670.959L358.602 677.797Z" fill="#003049" fill-opacity="0.08"/>
</g>
<mask id="mask10_73_467" style="mask-type:luminance" maskUnits="userSpaceOnUse" x="334" y="675" width="13" height="15">
<path d="M334.84 689.135L335.811 675.412L346.223 684.426L334.84 689.135Z" fill="white"/>
</mask>
<g mask="url(#mask10_73_467)">
<path d="M334.84 689.135L335.811 675.412L346.223 684.426L334.84 689.135Z" fill="#003049" fill-opacity="0.08"/>
</g>
<mask id="mask11_73_467" style="mask-type:luminance" maskUnits="userSpaceOnUse" x="309" y="682" width="13" height="14">
<path d="M309.309 695.61L312.958 682.341L321.401 693.213L309.309 695.61Z" fill="white"/>
</mask>
<g mask="url(#mask11_73_467)">
<path d="M309.309 695.61L312.958 682.341L321.401 693.213L309.309 695.61Z" fill="#003049" fill-opacity="0.08"/>
</g>
<mask id="mask12_73_467" style="mask-type:luminance" maskUnits="userSpaceOnUse" x="256" y="682" width="14" height="14">
<path d="M269.046 695.61L256.968 693.213L265.403 682.341L269.046 695.61Z" fill="white"/>
</mask>
<g mask="url(#mask12_73_467)">
<path d="M269.046 695.61L256.968 693.213L265.403 682.341L269.046 695.61Z" fill="#003049" fill-opacity="0.08"/>
</g>
<mask id="mask13_73_467" style="mask-type:luminance" maskUnits="userSpaceOnUse" x="232" y="675" width="12" height="15">
<path d="M243.518 689.135L232.132 684.426L242.541 675.412L243.518 689.135Z" fill="white"/>
</mask>
<g mask="url(#mask13_73_467)">
<path d="M243.518 689.135L232.132 684.426L242.541 675.412L243.518 689.135Z" fill="#003049" fill-opacity="0.08"/>
</g>
<mask id="mask14_73_467" style="mask-type:luminance" maskUnits="userSpaceOnUse" x="209" y="664" width="13" height="14">
<path d="M219.772 677.797L209.517 670.959L221.491 664.128L219.772 677.797Z" fill="white"/>
</mask>
<g mask="url(#mask14_73_467)">
<path d="M219.772 677.797L209.517 670.959L221.491 664.128L219.772 677.797Z" fill="#003049" fill-opacity="0.08"/>
</g>
<mask id="mask15_73_467" style="mask-type:luminance" maskUnits="userSpaceOnUse" x="174" y="630" width="14" height="13">
<path d="M181.026 642.482L174.185 632.23L187.851 630.511L181.026 642.482Z" fill="white"/>
</mask>
<g mask="url(#mask15_73_467)">
<path d="M181.026 642.482L174.185 632.23L187.851 630.511L181.026 642.482Z" fill="#003049" fill-opacity="0.08"/>
</g>
<mask id="mask16_73_467" style="mask-type:luminance" maskUnits="userSpaceOnUse" x="162" y="608" width="15" height="12">
<path d="M167.565 619.85L162.862 608.456L176.59 609.433L167.565 619.85Z" fill="white"/>
</mask>
<g mask="url(#mask16_73_467)">
<path d="M167.565 619.85L162.862 608.456L176.59 609.433L167.565 619.85Z" fill="#003049" fill-opacity="0.08"/>
</g>
<mask id="mask17_73_467" style="mask-type:luminance" maskUnits="userSpaceOnUse" x="156" y="582" width="14" height="14">
<path d="M158.786 595.026L156.384 582.947L169.664 586.591L158.786 595.026Z" fill="white"/>
</mask>
<g mask="url(#mask17_73_467)">
<path d="M158.786 595.026L156.384 582.947L169.664 586.591L158.786 595.026Z" fill="#003049" fill-opacity="0.08"/>
</g>
<mask id="mask18_73_467" style="mask-type:luminance" maskUnits="userSpaceOnUse" x="156" y="530" width="14" height="13">
<path d="M156.384 542.676L158.786 530.583L169.664 539.038L156.384 542.676Z" fill="white"/>
</mask>
<g mask="url(#mask18_73_467)">
<path d="M156.384 542.676L158.786 530.583L169.664 539.038L156.384 542.676Z" fill="#003049" fill-opacity="0.08"/>
</g>
<mask id="mask19_73_467" style="mask-type:luminance" maskUnits="userSpaceOnUse" x="162" y="505" width="15" height="13">
<path d="M162.862 517.156L167.565 505.767L176.59 516.179L162.862 517.156Z" fill="white"/>
</mask>
<g mask="url(#mask19_73_467)">
<path d="M162.862 517.156L167.565 505.767L176.59 516.179L162.862 517.156Z" fill="#003049" fill-opacity="0.08"/>
</g>
<mask id="mask20_73_467" style="mask-type:luminance" maskUnits="userSpaceOnUse" x="174" y="483" width="14" height="13">
<path d="M187.851 495.123L174.185 493.385L181.026 483.135L187.851 495.123Z" fill="white"/>
</mask>
<g mask="url(#mask20_73_467)">
<path d="M187.851 495.123L174.185 493.385L181.026 483.135L187.851 495.123Z" fill="#003049" fill-opacity="0.08"/>
</g>
<mask id="mask21_73_467" style="mask-type:luminance" maskUnits="userSpaceOnUse" x="209" y="447" width="13" height="15">
<path d="M221.491 461.48L209.517 454.659L219.772 447.808L221.491 461.48Z" fill="white"/>
</mask>
<g mask="url(#mask21_73_467)">
<path d="M221.491 461.48L209.517 454.659L219.772 447.808L221.491 461.48Z" fill="#003049" fill-opacity="0.08"/>
</g>
<mask id="mask22_73_467" style="mask-type:luminance" maskUnits="userSpaceOnUse" x="232" y="436" width="12" height="15">
<path d="M242.541 450.22L232.132 441.197L243.518 436.474L242.541 450.22Z" fill="white"/>
</mask>
<g mask="url(#mask22_73_467)">
<path d="M242.541 450.22L232.132 441.197L243.518 436.474L242.541 450.22Z" fill="#003049" fill-opacity="0.08"/>
</g>
<mask id="mask23_73_467" style="mask-type:luminance" maskUnits="userSpaceOnUse" x="256" y="429" width="14" height="15">
<path d="M265.403 443.287L256.968 432.393L269.046 429.996L265.403 443.287Z" fill="white"/>
</mask>
<g mask="url(#mask23_73_467)">
<path d="M265.403 443.287L256.968 432.393L269.046 429.996L265.403 443.287Z" fill="#003049" fill-opacity="0.08"/>
</g>
<mask id="mask24_73_467" style="mask-type:luminance" maskUnits="userSpaceOnUse" x="102" y="378" width="372" height="372">
<path d="M287.915 749.198C287.642 749.198 287.361 749.195 287.086 749.195V625.442C281.57 625.257 276.231 624.371 271.167 622.849L283.794 749.152C282.391 749.121 280.98 749.076 279.585 749.013L277.634 729.5C237.971 726.799 202.116 710.276 174.855 684.693L158.647 696.581C157.554 695.513 156.472 694.431 155.407 693.341L167.326 677.087C141.738 649.832 125.195 614.002 122.48 574.347L102.992 572.399C102.87 569.647 102.81 566.87 102.81 564.087C102.81 562.956 102.819 561.832 102.838 560.707H226.543C226.733 555.189 227.622 549.852 229.139 544.783L102.927 557.407C102.978 555.998 103.043 554.598 103.125 553.195L122.494 551.255C125.195 511.598 141.707 475.748 167.292 448.479L156.489 433.736C157.693 432.521 158.914 431.325 160.152 430.144L174.895 440.953C202.156 415.37 237.979 398.818 277.634 396.112L279.327 379.171C282.173 379.044 285.038 378.975 287.915 378.975C289.031 378.975 290.153 378.987 291.266 379.007V500.187C296.801 500.368 302.126 501.263 307.193 502.782L294.822 379.103C296.233 379.154 297.647 379.222 299.048 379.305L300.729 396.112C340.381 398.818 376.236 415.336 403.502 440.93L416.777 431.197C418.134 432.515 419.469 433.85 420.787 435.207L411.031 448.518C436.617 475.785 453.165 511.601 455.875 551.255L472.69 552.94C472.909 556.629 473.02 560.343 473.02 564.087C473.02 564.354 473.02 564.629 473.017 564.896H351.795C351.613 570.417 350.724 575.75 349.21 580.823L472.969 568.443C472.937 569.852 472.889 571.258 472.824 572.658L455.866 574.353C453.16 614.002 436.608 649.818 411.031 677.087L421.857 691.855C420.676 693.094 419.48 694.312 418.265 695.516L403.474 684.67C376.216 710.258 340.381 726.799 300.729 729.505L298.792 748.883C295.194 749.09 291.567 749.198 287.915 749.198ZM263.247 619.873L198.427 667.414C219.321 685.491 245.69 697.388 274.72 700.353L266.817 621.375C265.61 620.915 264.42 620.409 263.247 619.873ZM315.102 619.867C313.943 620.404 312.756 620.904 311.544 621.364L303.646 700.324C332.562 697.246 358.79 685.247 379.581 667.142L315.102 619.867ZM331.989 608.572C328.177 612.134 323.935 615.241 319.314 617.774L401.327 677.908L367.647 644.234L331.989 608.572ZM234.211 592.952L174.085 674.94L243.409 605.616C239.842 601.805 236.752 597.556 234.211 592.952ZM151.334 577.233C154.35 606.309 166.378 632.695 184.562 653.575L232.121 588.738C231.584 587.568 231.087 586.375 230.618 585.159L151.334 577.233ZM426.384 577.293L347.731 585.159C347.271 586.369 346.774 587.551 346.237 588.726L393.52 653.197C411.5 632.391 423.377 606.164 426.384 577.293ZM289.179 518.931C264.936 518.931 245.309 538.589 245.309 562.811C245.309 587.034 264.936 606.681 289.179 606.681C313.395 606.681 333.051 587.034 333.051 562.811C333.051 538.589 313.395 518.931 289.179 518.931ZM184.562 472.019C166.378 492.908 154.398 519.297 151.374 548.373L230.621 540.441C231.087 539.237 231.584 538.044 232.121 536.868L184.562 472.019ZM393.514 472.409L346.237 536.885C346.765 538.055 347.265 539.237 347.719 540.435L426.427 548.31C423.414 519.439 411.511 493.22 393.514 472.409ZM404.255 450.697L334.939 520.007C338.501 523.815 341.605 528.064 344.127 532.668L404.255 450.697ZM177.056 447.712L246.383 517.039C250.191 513.478 254.44 510.382 259.041 507.846L177.056 447.712ZM303.646 425.336L311.544 504.259C312.748 504.719 313.929 505.216 315.096 505.75L379.61 458.447C358.809 440.348 332.568 428.406 303.646 425.336ZM274.726 425.233C245.699 428.184 219.346 440.138 198.452 458.22L263.255 505.75C264.434 505.216 265.612 504.719 266.817 504.253L274.726 425.233Z" fill="white"/>
</mask>
<g mask="url(#mask24_73_467)">
<path d="M287.915 749.198C287.642 749.198 287.361 749.195 287.086 749.195V625.442C281.57 625.257 276.231 624.371 271.167 622.849L283.794 749.152C282.391 749.121 280.98 749.076 279.585 749.013L277.634 729.5C237.971 726.799 202.116 710.276 174.855 684.693L158.647 696.581C157.554 695.513 156.472 694.431 155.407 693.341L167.326 677.087C141.738 649.832 125.195 614.002 122.48 574.347L102.992 572.399C102.87 569.647 102.81 566.87 102.81 564.087C102.81 562.956 102.819 561.832 102.838 560.707H226.543C226.733 555.189 227.622 549.852 229.139 544.783L102.927 557.407C102.978 555.998 103.043 554.598 103.125 553.195L122.494 551.255C125.195 511.598 141.707 475.748 167.292 448.479L156.489 433.736C157.693 432.521 158.914 431.325 160.152 430.144L174.895 440.953C202.156 415.37 237.979 398.818 277.634 396.112L279.327 379.171C282.173 379.044 285.038 378.975 287.915 378.975C289.031 378.975 290.153 378.987 291.266 379.007V500.187C296.801 500.368 302.126 501.263 307.193 502.782L294.822 379.103C296.233 379.154 297.647 379.222 299.048 379.305L300.729 396.112C340.381 398.818 376.236 415.336 403.502 440.93L416.777 431.197C418.134 432.515 419.469 433.85 420.787 435.207L411.031 448.518C436.617 475.785 453.165 511.601 455.875 551.255L472.69 552.94C472.909 556.629 473.02 560.343 473.02 564.087C473.02 564.354 473.02 564.629 473.017 564.896H351.795C351.613 570.417 350.724 575.75 349.21 580.823L472.969 568.443C472.937 569.852 472.889 571.258 472.824 572.658L455.866 574.353C453.16 614.002 436.608 649.818 411.031 677.087L421.857 691.855C420.676 693.094 419.48 694.312 418.265 695.516L403.474 684.67C376.216 710.258 340.381 726.799 300.729 729.505L298.792 748.883C295.194 749.09 291.567 749.198 287.915 749.198ZM263.247 619.873L198.427 667.414C219.321 685.491 245.69 697.388 274.72 700.353L266.817 621.375C265.61 620.915 264.42 620.409 263.247 619.873ZM315.102 619.867C313.943 620.404 312.756 620.904 311.544 621.364L303.646 700.324C332.562 697.246 358.79 685.247 379.581 667.142L315.102 619.867ZM331.989 608.572C328.177 612.134 323.935 615.241 319.314 617.774L401.327 677.908L367.647 644.234L331.989 608.572ZM234.211 592.952L174.085 674.94L243.409 605.616C239.842 601.805 236.752 597.556 234.211 592.952ZM151.334 577.233C154.35 606.309 166.378 632.695 184.562 653.575L232.121 588.738C231.584 587.568 231.087 586.375 230.618 585.159L151.334 577.233ZM426.384 577.293L347.731 585.159C347.271 586.369 346.774 587.551 346.237 588.726L393.52 653.197C411.5 632.391 423.377 606.164 426.384 577.293ZM289.179 518.931C264.936 518.931 245.309 538.589 245.309 562.811C245.309 587.034 264.936 606.681 289.179 606.681C313.395 606.681 333.051 587.034 333.051 562.811C333.051 538.589 313.395 518.931 289.179 518.931ZM184.562 472.019C166.378 492.908 154.398 519.297 151.374 548.373L230.621 540.441C231.087 539.237 231.584 538.044 232.121 536.868L184.562 472.019ZM393.514 472.409L346.237 536.885C346.765 538.055 347.265 539.237 347.719 540.435L426.427 548.31C423.414 519.439 411.511 493.22 393.514 472.409ZM404.255 450.697L334.939 520.007C338.501 523.815 341.605 528.064 344.127 532.668L404.255 450.697ZM177.056 447.712L246.383 517.039C250.191 513.478 254.44 510.382 259.041 507.846L177.056 447.712ZM303.646 425.336L311.544 504.259C312.748 504.719 313.929 505.216 315.096 505.75L379.61 458.447C358.809 440.348 332.568 428.406 303.646 425.336ZM274.726 425.233C245.699 428.184 219.346 440.138 198.452 458.22L263.255 505.75C264.434 505.216 265.612 504.719 266.817 504.253L274.726 425.233Z" fill="#003049" fill-opacity="0.08"/>
</g>
<mask id="mask25_73_467" style="mask-type:luminance" maskUnits="userSpaceOnUse" x="251" y="525" width="76" height="76">
<path d="M289.179 600.396C268.578 600.396 251.881 583.7 251.881 563.115C251.881 542.514 268.578 525.818 289.179 525.818C309.772 525.818 326.456 542.514 326.456 563.115C326.456 583.7 309.772 600.396 289.179 600.396ZM288.878 552.36C282.951 552.36 278.128 557.18 278.128 563.115C278.128 569.045 282.951 573.859 288.878 573.859C294.816 573.859 299.627 569.045 299.627 563.115C299.627 557.18 294.816 552.36 288.878 552.36Z" fill="white"/>
</mask>
<g mask="url(#mask25_73_467)">
<path d="M289.179 600.396C268.578 600.396 251.881 583.7 251.881 563.115C251.881 542.514 268.578 525.818 289.179 525.818C309.772 525.818 326.456 542.514 326.456 563.115C326.456 583.7 309.772 600.396 289.179 600.396ZM288.878 552.36C282.951 552.36 278.128 557.18 278.128 563.115C278.128 569.045 282.951 573.859 288.878 573.859C294.816 573.859 299.627 569.045 299.627 563.115C299.627 557.18 294.816 552.36 288.878 552.36Z" fill="#003049" fill-opacity="0.08"/>
</g>
<path d="M287.915 919.087C277.984 919.087 269.93 917.7 269.93 901.652C270.057 892.539 271.014 883.376 272.105 874.334C274.002 858.62 276.158 842.816 280.443 827.542C272.309 827.131 265.053 821.641 262.645 813.808C262.338 812.942 262.202 812.039 262.006 811.15C214.575 806.359 168.354 787.498 131.534 757.113C130.83 757.69 130.003 758.102 129.208 758.539C126.385 760.03 123.261 760.757 120.143 760.757C115.326 760.757 110.529 759.019 106.911 755.665C101.995 765.011 95.0401 774.426 88.8007 782.824C80.4028 794.138 71.5818 805.22 61.9343 815.498C57.0126 820.422 52.9685 822.322 49.3958 822.322C44.7297 822.322 40.8673 819.088 36.8913 815.112C29.8651 808.088 25.1622 801.414 36.5051 790.071C43.0371 783.715 50.1938 777.902 57.3563 772.29C69.8068 762.521 82.5128 752.865 96.3436 745.091C90.8737 739.056 89.6384 730.045 93.4696 722.8C93.8615 721.98 94.401 721.23 94.8867 720.472C64.53 683.56 45.6726 637.49 40.8474 589.996C39.9472 589.908 39.0611 589.613 38.1977 589.357C30.4388 586.969 24.7702 579.679 24.4606 571.559C14.373 574.703 2.79728 576.435 -7.55164 577.96C-21.4903 580.022 -35.5624 581.627 -49.6545 582.07C-65.7004 582.07 -67.0864 574.021 -67.0864 564.087C-67.0864 554.153 -65.7004 546.104 -49.6545 546.104C-40.5438 546.232 -31.3706 547.186 -22.3366 548.279C-6.62014 550.177 9.19286 552.326 24.4606 556.615C24.8696 548.473 30.3622 541.228 38.1977 538.814C39.0525 538.51 39.967 538.365 40.8474 538.178C45.647 490.747 64.5016 444.529 94.8867 407.705C94.313 406.998 93.9013 406.174 93.4696 405.379C89.6697 398.202 90.8141 389.043 96.3436 383.082C86.9886 378.166 77.5769 371.205 69.1848 364.977C57.8646 356.579 46.7802 347.758 36.5051 338.102C25.1622 326.765 29.8651 320.085 36.8913 313.062C40.8644 309.086 44.7297 305.851 49.3958 305.851C52.9685 305.851 57.0126 307.751 61.9343 312.676C68.2817 319.208 74.0981 326.365 79.7184 333.527C89.4851 345.978 99.1411 358.687 106.911 372.509C110.595 369.183 115.38 367.423 120.197 367.423C123.281 367.423 126.379 368.144 129.211 369.641C130.032 370.03 130.778 370.566 131.534 371.061C168.44 340.704 214.516 321.843 262.006 317.024C262.094 316.121 262.389 315.238 262.645 314.366C265.053 306.533 272.309 301.043 280.443 300.631C276.158 285.361 274.002 269.553 272.105 253.834C271.014 244.803 270.057 235.63 269.93 226.522C269.93 210.473 277.984 209.087 287.915 209.087C297.846 209.087 305.895 210.473 305.895 226.522C305.455 240.605 303.853 254.683 301.788 268.622C300.252 278.968 298.528 290.549 295.384 300.631C303.507 300.944 310.797 306.607 313.188 314.366C313.489 315.226 313.637 316.135 313.822 317.024C361.258 321.821 407.47 340.675 444.296 371.061C445.001 370.484 445.827 370.069 446.622 369.641C449.451 368.144 452.552 367.423 455.636 367.423C460.453 367.423 465.238 369.183 468.919 372.509C476.689 358.687 486.345 345.978 496.112 333.527C501.729 326.365 507.546 319.208 513.899 312.676C518.818 307.751 522.862 305.851 526.434 305.851C531.098 305.851 534.963 309.086 538.936 313.062C545.965 320.085 550.671 326.765 539.328 338.102C529.05 347.758 517.963 356.579 506.645 364.977C498.253 371.205 488.838 378.166 479.484 383.082C485.016 389.043 486.161 398.202 482.363 405.373C481.966 406.2 481.432 406.95 480.935 407.705C511.297 444.614 530.155 490.69 534.98 538.178C535.883 538.266 536.758 538.561 537.632 538.814C545.468 541.228 550.958 548.473 551.369 556.615C566.637 552.326 582.445 550.177 598.164 548.279C607.204 547.186 616.374 546.232 625.482 546.104C641.528 546.104 642.914 554.153 642.914 564.087C642.914 574.021 641.528 582.07 625.482 582.07C611.398 581.627 597.323 580.022 583.376 577.96C573.033 576.435 561.449 574.703 551.369 571.559C551.06 579.679 545.391 586.969 537.632 589.357C536.777 589.664 535.863 589.809 534.98 589.996C530.177 637.427 511.328 683.645 480.935 720.472C481.514 721.173 481.929 722.002 482.363 722.8C486.192 730.045 484.953 739.056 479.484 745.091C493.314 752.865 506.02 762.521 518.474 772.29C525.631 777.902 532.793 783.715 539.328 790.071C550.671 801.414 545.965 808.088 538.936 815.112C534.963 819.088 531.098 822.322 526.434 822.322C522.862 822.322 518.818 820.422 513.899 815.498C504.246 805.22 495.427 794.138 487.027 782.824C480.793 774.426 473.832 765.011 468.919 755.665C465.301 759.019 460.504 760.757 455.687 760.757C452.569 760.757 449.442 760.03 446.622 758.539C445.798 758.144 445.049 757.602 444.296 757.113C407.382 787.47 361.312 806.33 313.822 811.15C313.733 812.056 313.441 812.936 313.188 813.808C310.797 821.567 303.507 827.236 295.384 827.542C298.528 837.624 300.252 849.209 301.788 859.552C303.853 873.491 305.455 887.563 305.895 901.652C305.895 917.7 297.846 919.087 287.915 919.087ZM287.915 326.353C156.614 326.353 50.1796 432.788 50.1796 564.087C50.1796 695.391 156.614 801.826 287.915 801.826C419.216 801.826 525.651 695.391 525.651 564.087C525.651 432.788 419.216 326.353 287.915 326.353ZM287.915 761.257C179.021 761.257 90.7432 672.984 90.7432 564.087C90.7432 501.255 120.131 445.287 165.918 409.179C166.077 409.293 166.261 409.372 166.463 409.418C166.551 409.435 166.639 409.443 166.721 409.443C166.98 409.443 167.216 409.364 167.429 409.202C167.784 408.943 168.045 408.341 168.212 407.396C170.297 405.802 172.41 404.249 174.557 402.738C174.912 402.764 175.29 402.798 175.693 402.846C176.605 402.957 177.442 403.011 178.201 403.011C178.996 403.011 179.706 402.951 180.328 402.829C181.552 402.585 182.87 401.957 184.27 400.92C186.283 399.429 187.504 397.669 187.916 395.655C188.03 395.11 188.087 394.562 188.089 394.013C217.373 376.789 251.486 366.911 287.915 366.911C396.809 366.911 485.087 455.196 485.087 564.087C485.087 672.984 396.809 761.257 287.915 761.257ZM287.086 749.195C287.361 749.195 287.642 749.198 287.915 749.198C291.567 749.198 295.194 749.09 298.792 748.883C345.306 746.188 387.212 726.316 418.265 695.516C419.48 694.312 420.676 693.094 421.858 691.856C451.717 660.556 470.722 618.814 472.824 572.658C472.889 571.258 472.938 569.852 472.969 568.443C472.997 567.265 473.011 566.081 473.017 564.896C473.02 564.629 473.02 564.354 473.02 564.087C473.02 560.344 472.909 556.629 472.69 552.94C469.975 507.267 450.698 466.044 420.787 435.208C419.469 433.85 418.134 432.515 416.777 431.198C385.937 401.287 344.723 382.015 299.048 379.305C297.648 379.223 296.233 379.155 294.822 379.103C293.635 379.061 292.459 379.027 291.266 379.007C290.153 378.987 289.031 378.976 287.915 378.976C285.038 378.976 282.173 379.044 279.327 379.172C233.183 381.279 191.446 400.284 160.152 430.144C158.914 431.325 157.693 432.521 156.489 433.737C125.695 464.786 105.824 506.688 103.126 553.195C103.043 554.598 102.978 555.999 102.927 557.407C102.89 558.503 102.859 559.608 102.839 560.707C102.819 561.832 102.81 562.957 102.81 564.087C102.81 566.87 102.87 569.648 102.992 572.4C105.068 619.393 124.664 661.826 155.407 693.341C156.472 694.432 157.554 695.514 158.647 696.581C190.16 727.333 232.589 746.935 279.586 749.014C280.98 749.076 282.391 749.121 283.794 749.153C284.893 749.175 285.984 749.19 287.086 749.195Z" fill="#003049" fill-opacity="0.08"/>
<mask id="mask26_73_467" style="mask-type:luminance" maskUnits="userSpaceOnUse" x="76" y="646" width="31" height="29">
<path d="M100.748 674.375L91.5865 668.09L82.4332 674.375L85.5771 663.714L76.7703 656.952L87.8746 656.648L91.5865 646.185L95.3069 656.648L106.406 656.952L97.6045 663.714L100.748 674.375Z" fill="white"/>
</mask>
<g mask="url(#mask26_73_467)">
<path d="M100.748 674.375L91.5865 668.09L82.4332 674.375L85.5771 663.714L76.7703 656.952L87.8746 656.648L91.5865 646.185L95.3069 656.648L106.406 656.952L97.6045 663.714L100.748 674.375Z" fill="#003049" fill-opacity="0.08"/>
</g>
<mask id="mask27_73_467" style="mask-type:luminance" maskUnits="userSpaceOnUse" x="469" y="646" width="30" height="29">
<path d="M493.11 674.375L483.954 668.09L474.792 674.375L477.93 663.714L469.135 656.952L480.233 656.648L483.954 646.185L487.668 656.648L498.776 656.952L489.966 663.714L493.11 674.375Z" fill="white"/>
</mask>
<g mask="url(#mask27_73_467)">
<path d="M493.11 674.375L483.954 668.09L474.792 674.375L477.93 663.714L469.135 656.952L480.233 656.648L483.954 646.185L487.668 656.648L498.776 656.952L489.966 663.714L493.11 674.375Z" fill="#003049" fill-opacity="0.08"/>
</g>
</g>
<defs>
<clipPath id="clip0_73_467">
<rect width="710" height="710" fill="white" transform="translate(0 142)"/>
</clipPath>
</defs>
</svg>
