<?xml version="1.0" encoding="UTF-8" standalone="no"?>
<!-- Uploaded to: SVG Repo, www.svgrepo.com, Generator: SVG Repo Mixer Tools -->

<svg
   height="25.007532"
   width="24.992521"
   version="1.1"
   id="_x32_"
   viewBox="0 0 15.995214 16.004821"
   xml:space="preserve"
   sodipodi:docname="orange.svg"
   inkscape:version="1.2.1 (9c6d41e410, 2022-07-14)"
   xmlns:inkscape="http://www.inkscape.org/namespaces/inkscape"
   xmlns:sodipodi="http://sodipodi.sourceforge.net/DTD/sodipodi-0.dtd"
   xmlns="http://www.w3.org/2000/svg"
   xmlns:svg="http://www.w3.org/2000/svg"><defs
   id="defs10508" /><sodipodi:namedview
   id="namedview10506"
   pagecolor="#ffffff"
   bordercolor="#000000"
   borderopacity="0.25"
   inkscape:showpageshadow="2"
   inkscape:pageopacity="0.0"
   inkscape:pagecheckerboard="true"
   inkscape:deskcolor="#d1d1d1"
   showgrid="false"
   inkscape:zoom="31.350555"
   inkscape:cx="12.503766"
   inkscape:cy="12.503766"
   inkscape:window-width="1680"
   inkscape:window-height="987"
   inkscape:window-x="-8"
   inkscape:window-y="-8"
   inkscape:window-maximized="1"
   inkscape:current-layer="_x32_" />
<style
   type="text/css"
   id="style10499">
	.st0{fill:#000000;}
</style>
<g
   id="g10503"
   transform="matrix(0.02999994,0,0,0.03045365,0.31760733,0.20629096)"
   style="fill:#f2774f;fill-opacity:1;stroke:#ffffff;stroke-width:21.1739;stroke-dasharray:none;stroke-opacity:1">
	<path
   class="st0"
   d="M 468.277,116.662 C 440.674,75.816 401.617,43.377 355.661,23.934 325.024,10.979 291.31,3.813 256.007,3.813 c -35.303,0 -68.914,7.166 -99.422,20.135 C 126.078,36.917 98.674,55.668 75.641,78.824 29.582,125.109 0.966,189.104 0.013,259.601 v 0.013 C 0.007,260.484 0,261.355 0,262.21 c 0,18.834 2.795,34.961 7.865,48.553 5.056,13.586 12.441,24.609 21.286,32.858 5.892,5.508 12.407,9.77 19.176,12.811 9.037,4.056 18.491,5.946 27.657,5.946 8.187,0 16.148,-1.493 23.486,-4.385 7.33,-2.897 14.065,-7.2 19.587,-12.921 14.64,-15.181 35.707,-24.334 59.042,-24.341 17.402,0.007 33.44,5.262 46.826,14.298 13.374,9.03 24.019,21.854 30.363,36.865 4.234,10.016 6.577,20.998 6.577,32.603 0.007,4.679 -0.754,9.551 -1.966,14.894 -1.192,5.33 -2.843,11.071 -4.282,17.415 -1.35,5.988 -2.014,11.722 -2.014,17.196 -0.027,10.125 2.371,19.388 6.694,27.061 4.302,7.694 10.407,13.654 17.073,17.868 4.446,2.822 9.153,4.905 13.914,6.384 6.351,1.96 12.797,2.864 19.052,2.871 5.858,-0.007 11.565,-0.788 16.977,-2.46 52.951,-16.387 99.058,-48.594 132.011,-91.364 32.946,-42.75 52.691,-96.215 52.677,-154.558 0.013,-52.963 -16.128,-102.297 -43.724,-143.142 z M 126.462,251.147 c -20.998,0 -38.024,-17.032 -38.024,-38.023 0,-21.006 17.025,-38.03 38.024,-38.03 21.005,0 38.03,17.024 38.03,38.03 0,20.991 -17.025,38.023 -38.03,38.023 z m 66.783,-84.713 c -18.264,0 -33.077,-14.812 -33.077,-33.083 0,-18.265 14.812,-33.077 33.077,-33.077 18.272,0 33.083,14.812 33.083,33.077 0,18.271 -14.811,33.083 -33.083,33.083 z m 95.537,-16.696 c -16.388,0 -29.679,-13.291 -29.679,-29.678 0,-16.387 13.291,-29.678 29.679,-29.678 16.387,0 29.678,13.29 29.678,29.678 0,16.388 -13.29,29.678 -29.678,29.678 z m 72.962,-12.208 c 14.6,0 26.431,11.831 26.431,26.43 0,14.593 -11.831,26.431 -26.431,26.431 -14.599,0 -26.43,-11.838 -26.43,-26.431 0,-14.599 11.832,-26.43 26.43,-26.43 z m 47.341,222.026 c -3.062,7.221 -8.153,13.339 -14.552,17.676 -6.406,4.33 -14.196,6.871 -22.485,6.871 -5.522,0 -10.831,-1.13 -15.641,-3.165 -7.221,-3.055 -13.346,-8.146 -17.676,-14.551 -4.337,-6.406 -6.878,-14.188 -6.872,-22.478 0,-5.522 1.123,-10.831 3.158,-15.647 3.062,-7.215 8.146,-13.339 14.552,-17.669 6.406,-4.344 14.195,-6.879 22.478,-6.872 5.529,0 10.838,1.124 15.648,3.158 7.221,3.056 13.346,8.153 17.675,14.552 4.337,6.406 6.879,14.196 6.872,22.478 10e-4,5.521 -1.122,10.838 -3.157,15.647 z M 397.61,254.503 c -11.414,0 -20.676,-9.249 -20.676,-20.67 0,-11.421 9.262,-20.67 20.676,-20.67 11.42,0 20.676,9.249 20.676,20.67 0,11.421 -9.256,20.67 -20.676,20.67 z"
   id="path10501"
   style="fill:#f2774f;fill-opacity:1;stroke:#ffffff;stroke-width:21.1739;stroke-dasharray:none;stroke-opacity:1" />
</g>
</svg>
