<?xml version="1.0" encoding="UTF-8" standalone="no"?>
<!-- Uploaded to: SVG Repo, www.svgrepo.com, Generator: SVG Repo Mixer Tools -->

<svg
   width="23.903128"
   height="24.248753"
   viewBox="0 0 0.95612511 0.9699501"
   fill="none"
   version="1.1"
   id="svg3"
   sodipodi:docname="transactions.svg"
   inkscape:version="1.3.2 (091e20e, 2023-11-25, custom)"
   xmlns:inkscape="http://www.inkscape.org/namespaces/inkscape"
   xmlns:sodipodi="http://sodipodi.sourceforge.net/DTD/sodipodi-0.dtd"
   xmlns="http://www.w3.org/2000/svg"
   xmlns:svg="http://www.w3.org/2000/svg">
  <sodipodi:namedview
     id="namedview3"
     pagecolor="#ffffff"
     bordercolor="#000000"
     borderopacity="0.25"
     inkscape:showpageshadow="2"
     inkscape:pageopacity="0.0"
     inkscape:pagecheckerboard="true"
     inkscape:deskcolor="#d1d1d1"
     inkscape:zoom="33.857412"
     inkscape:cx="11.947163"
     inkscape:cy="12.124376"
     inkscape:window-width="1920"
     inkscape:window-height="1017"
     inkscape:window-x="1352"
     inkscape:window-y="-8"
     inkscape:window-maximized="1"
     inkscape:current-layer="svg3" />
  <g
     clip-path="url(#clip0_901_3008)"
     id="g3"
     transform="scale(0.02987891,0.03031094)">
    <path
       d="m 31,6 v 5 5 5 5 5 H 12 C 18.07,31 23,26.07 23,20 23,13.93 18.07,9 12,9 10.23,9 8.56,9.42 7.08,10.16 L 7,10 V 1 h 24 z"
       fill="#668077"
       id="path1" />
    <path
       d="m 12,9 c 6.07,0 11,4.93 11,11 0,6.07 -4.93,11 -11,11 C 5.93,31 1,26.07 1,20 1,15.7 3.48,11.97 7.08,10.16 8.56,9.42 10.23,9 12,9 Z"
       fill="#ffc44d"
       id="path2" />
    <path
       d="m 15,17 c 0,-1.657 -1.343,-3 -3,-3 m 0,0 c -1.657,0 -3,1.343 -3,3 0,1.657 1.343,3 3,3 1.657,0 3,1.343 3,3 0,1.657 -1.343,3 -3,3 m 0,-12 v -1 m 0,13 C 10.343,26 9,24.657 9,23 m 3,3 v 1 m 10,4 h 9 v -2 m -6,-3 h 6 v -2 m -5,-3 h 5 v -2 m -5,-3 h 5 v -2 m -8,-3 h 8 V 9 M 10,6 H 31 V 1 H 7 V 6 M 23,20 C 23,13.926 18.074,9 12,9 5.926,9 1,13.926 1,20 c 0,6.074 4.926,11 11,11 6.074,0 11,-4.926 11,-11 z"
       stroke="#000000"
       stroke-width="2"
       stroke-linecap="round"
       stroke-linejoin="round"
       id="path3" />
  </g>
  <defs
     id="defs3">
    <clipPath
       id="clip0_901_3008">
      <rect
         width="32"
         height="32"
         fill="#ffffff"
         id="rect3"
         x="0"
         y="0" />
    </clipPath>
  </defs>
</svg>
