<?xml version="1.0" encoding="UTF-8" standalone="no"?>
<!-- Uploaded to: SVG Repo, www.svgrepo.com, Generator: SVG Repo Mixer Tools -->

<svg
   height="24"
   width="24"
   version="1.1"
   id="Layer_1"
   viewBox="0 0 15.36 15.36"
   xml:space="preserve"
   sodipodi:docname="receipts.svg"
   inkscape:version="1.3.2 (091e20e, 2023-11-25, custom)"
   xmlns:inkscape="http://www.inkscape.org/namespaces/inkscape"
   xmlns:sodipodi="http://sodipodi.sourceforge.net/DTD/sodipodi-0.dtd"
   xmlns="http://www.w3.org/2000/svg"
   xmlns:svg="http://www.w3.org/2000/svg"><defs
   id="defs4" /><sodipodi:namedview
   id="namedview4"
   pagecolor="#ffffff"
   bordercolor="#000000"
   borderopacity="0.25"
   inkscape:showpageshadow="2"
   inkscape:pageopacity="0.0"
   inkscape:pagecheckerboard="true"
   inkscape:deskcolor="#d1d1d1"
   inkscape:zoom="34.208333"
   inkscape:cx="11.985384"
   inkscape:cy="12"
   inkscape:window-width="1920"
   inkscape:window-height="1017"
   inkscape:window-x="1352"
   inkscape:window-y="-8"
   inkscape:window-maximized="1"
   inkscape:current-layer="Layer_1" />
<circle
   style="fill:#ff9839;stroke-width:0.03"
   cx="7.6799998"
   cy="7.6799998"
   id="circle1"
   r="5.7385798" />
<g
   id="g4"
   transform="scale(0.03)">
	<path
   style="fill:#4c1d1d"
   d="M 113.527,113.527 C 75.471,151.583 54.513,202.18 54.513,256 c 0,53.82 20.958,104.417 59.014,142.473 38.056,38.056 88.654,59.014 142.473,59.014 53.819,0 104.417,-20.958 142.473,-59.014 38.056,-38.056 59.012,-88.654 59.012,-142.473 0,-53.819 -20.958,-104.417 -59.014,-142.473 C 360.415,75.471 309.82,54.513 256,54.513 c -53.82,0 -104.417,20.958 -142.473,59.014 z M 437.089,256 c 0,48.371 -18.837,93.846 -53.04,128.049 -34.203,34.203 -79.678,53.04 -128.049,53.04 -48.371,0 -93.846,-18.837 -128.049,-53.04 C 93.748,349.846 74.911,304.371 74.911,256 c 0,-48.371 18.837,-93.846 53.04,-128.049 34.203,-34.203 79.678,-53.04 128.049,-53.04 48.371,0 93.846,18.837 128.049,53.04 34.203,34.203 53.04,79.678 53.04,128.049 z"
   id="path1" />
	<path
   style="fill:#4c1d1d"
   d="m 198.523,187.883 c 16.434,-14.768 29.538,-14.145 33.283,-17.89 3.744,-3.744 1.04,-11.024 -1.665,-13.728 -6.864,-6.864 -28.707,4.576 -44.307,18.93 l -6.032,-6.032 c -2.081,-2.081 -6.449,-1.457 -8.737,0.83 -2.705,2.705 -2.912,6.657 -0.831,8.738 l 6.448,6.448 c -16.85,19.346 -28.291,47.428 -2.081,73.638 26.626,26.626 52.421,13.314 77.175,1.456 l 60.533,60.533 c -26.418,25.172 -47.427,13.314 -52.42,18.307 -3.12,3.12 -1.873,10.607 1.456,13.936 7.489,7.489 37.652,6.865 64.069,-19.138 l 7.489,7.489 c 2.08,2.08 6.032,1.873 8.737,-0.832 2.288,-2.288 2.911,-6.656 0.831,-8.736 l -8.112,-8.112 c 18.096,-23.507 19.762,-50.965 -5.409,-76.135 -28.499,-28.499 -55.333,-19.138 -78.84,-8.112 z m -12.064,56.58 c -15.394,-15.394 -8.946,-33.075 3.121,-47.22 l 48.26,48.26 c -18.306,8.738 -35.154,15.187 -51.381,-1.04 z m 130.427,17.682 c 15.394,15.394 16.226,32.451 3.953,49.3 l -56.79,-56.79 c 17.683,-7.279 34.74,-10.607 52.837,7.49 z"
   id="path2" />
	<path
   style="fill:#4c1d1d"
   d="m 244.099,20.681 c 0.163,0 0.328,-0.004 0.495,-0.012 3.768,-0.178 7.605,-0.27 11.407,-0.27 5.632,0 10.199,-4.567 10.199,-10.199 C 266.2,4.568 261.632,0 256,0 c -4.125,0 -8.29,0.099 -12.381,0.295 -5.627,0.269 -9.969,5.048 -9.7,10.674 0.261,5.46 4.77,9.712 10.18,9.712 z"
   id="path3" />
	<path
   style="fill:#4c1d1d"
   d="M 491.196,154.751 C 480.104,129.018 465.044,105.568 446.345,84.822 h 3.918 c 5.632,0 10.199,-4.567 10.199,-10.199 0,-5.632 -4.567,-10.199 -10.199,-10.199 H 421.52 c -5.632,0 -10.199,4.567 -10.199,10.199 v 28.743 c 0,5.632 4.567,10.199 10.199,10.199 5.632,0 10.199,-4.567 10.199,-10.199 v -4.311 c 38.727,43.211 59.884,98.333 59.884,156.944 0,129.911 -105.69,235.602 -235.602,235.602 C 126.089,491.601 20.398,385.911 20.398,256 20.398,149.82 91.886,56.298 194.242,28.573 199.679,27.1 202.892,21.498 201.42,16.062 199.947,10.625 194.344,7.408 188.909,8.884 77.682,39.012 0,140.63 0,256 0,324.381 26.628,388.667 74.981,437.019 123.333,485.372 187.619,512 256,512 324.381,512 388.667,485.372 437.019,437.019 485.372,388.667 512,324.381 512,256 c 0,-35.157 -7,-69.222 -20.804,-101.249 z"
   id="path4" />
</g>
</svg>
