<?xml version="1.0" encoding="UTF-8" standalone="no"?>
<!-- Uploaded to: SVG Repo, www.svgrepo.com, Generator: SVG Repo Mixer Tools -->

<svg
   height="24.000002"
   width="24"
   version="1.1"
   id="Layer_1"
   viewBox="0 0 15.36 15.360001"
   xml:space="preserve"
   sodipodi:docname="stats-line-chart-svgrepo-com.svg"
   inkscape:version="1.2.1 (9c6d41e410, 2022-07-14)"
   xmlns:inkscape="http://www.inkscape.org/namespaces/inkscape"
   xmlns:sodipodi="http://sodipodi.sourceforge.net/DTD/sodipodi-0.dtd"
   xmlns="http://www.w3.org/2000/svg"
   xmlns:svg="http://www.w3.org/2000/svg"><defs
   id="defs508" /><sodipodi:namedview
   id="namedview506"
   pagecolor="#ffffff"
   bordercolor="#000000"
   borderopacity="0.25"
   inkscape:showpageshadow="2"
   inkscape:pageopacity="0.0"
   inkscape:pagecheckerboard="true"
   inkscape:deskcolor="#d1d1d1"
   showgrid="false"
   inkscape:zoom="33.916664"
   inkscape:cx="12.000001"
   inkscape:cy="12.000001"
   inkscape:window-width="1920"
   inkscape:window-height="1017"
   inkscape:window-x="-8"
   inkscape:window-y="-8"
   inkscape:window-maximized="1"
   inkscape:current-layer="Layer_1" />



<g
   id="g636"
   transform="scale(0.03,0.0334099)"><polyline
     style="fill:#666666"
     points="160,441.6 160,386.928 352,386.928 352,435.2 "
     id="polyline487"
     transform="translate(0,-26.128)" /><path
     d="M 378.672,459.744 H 133.328 C 119.392,459.744 108,448.352 108,434.416 v 0 c 0,-13.936 11.392,-25.328 25.328,-25.328 h 245.328 c 13.936,0 25.328,11.392 25.328,25.328 v 0 c 0.016,13.92 -11.376,25.328 -25.312,25.328 z"
     id="path489" /><path
     style="fill:#e04f5f"
     d="M 480,320 H 32 C 14.4,320 0,305.6 0,288 V 32 C 0,14.4 14.4,0 32,0 h 448 c 17.6,0 32,14.4 32,32 v 256 c 0,17.6 -14.4,32 -32,32 z"
     id="path491" /><g
     id="g503"
     transform="translate(0,-26.128)">
	<polygon
   style="fill:#ffffff"
   points="312.576,228.464 182.24,157.376 103.088,236.496 91.776,225.184 179.392,137.584 311.04,209.408 414.096,129.264 423.904,141.888 "
   id="polygon493" />
	<circle
   style="fill:#ffffff"
   cx="421.56799"
   cy="135.56799"
   r="24.176001"
   id="circle495" />
	<circle
   style="fill:#ffffff"
   cx="97.440002"
   cy="237.168"
   r="24.176001"
   id="circle497" />
	<circle
   style="fill:#ffffff"
   cx="178.92799"
   cy="148.20799"
   r="24.176001"
   id="circle499" />
	<circle
   style="fill:#ffffff"
   cx="311.80801"
   cy="217.424"
   r="24.176001"
   id="circle501" />
</g></g>
</svg>
