<?xml version="1.0" encoding="UTF-8" standalone="no"?>
<!-- Uploaded to: SVG Repo, www.svgrepo.com, Generator: SVG Repo Mixer Tools -->

<svg
   version="1.1"
   id="Layer_1"
   viewBox="0 0 24 24"
   xml:space="preserve"
   sodipodi:docname="availability.svg"
   width="24"
   height="24"
   inkscape:version="1.2.1 (9c6d41e410, 2022-07-14)"
   xmlns:inkscape="http://www.inkscape.org/namespaces/inkscape"
   xmlns:sodipodi="http://sodipodi.sourceforge.net/DTD/sodipodi-0.dtd"
   xmlns="http://www.w3.org/2000/svg"
   xmlns:svg="http://www.w3.org/2000/svg"><defs
   id="defs23" /><sodipodi:namedview
   id="namedview21"
   pagecolor="#ffffff"
   bordercolor="#000000"
   borderopacity="0.25"
   inkscape:showpageshadow="2"
   inkscape:pageopacity="0.0"
   inkscape:pagecheckerboard="true"
   inkscape:deskcolor="#d1d1d1"
   showgrid="false"
   inkscape:zoom="33.916667"
   inkscape:cx="12"
   inkscape:cy="12"
   inkscape:window-width="1920"
   inkscape:window-height="1017"
   inkscape:window-x="1352"
   inkscape:window-y="-8"
   inkscape:window-maximized="1"
   inkscape:current-layer="Layer_1" />








<rect
   x="0.47807813"
   y="2.6607533"
   style="fill:#ededed;stroke-width:0.0494543"
   width="23.043842"
   height="20.807106"
   id="rect2" /><path
   d="m 1.8884531,1.4900344 c 0.2640469,0 0.4780782,-0.2382343 0.4780782,-0.53214021 V 0.53219242 C 2.3665313,0.23828655 2.1525,5.2175728e-5 1.8884531,5.2175728e-5 1.6244063,5.2175728e-5 1.410375,0.23828655 1.410375,0.53219242 v 0.42570177 c 0,0.29390591 0.2140313,0.53214021 0.4780781,0.53214021 z"
   id="path4"
   style="stroke-width:0.0494543;fill:#333333;fill-opacity:1" /><path
   d="m 15.251016,4.5764896 h 7.027875 c 0.264046,0 0.478078,-0.2382344 0.478078,-0.5321402 0,-0.2939059 -0.214032,-0.5321403 -0.478078,-0.5321403 h -7.027875 c -0.264047,0 -0.478078,0.2382344 -0.478078,0.5321403 -4.7e-5,0.2939058 0.214031,0.5321402 0.478078,0.5321402 z"
   id="path6"
   style="stroke-width:0.0494543" /><path
   d="m 12.478078,4.5764896 h 0.669328 c 0.264047,0 0.478078,-0.2382344 0.478078,-0.5321402 0,-0.2939059 -0.214031,-0.5321403 -0.478078,-0.5321403 H 12.478078 C 12.214031,3.5122091 12,3.7504435 12,4.0443494 c 0,0.2939058 0.214031,0.5321402 0.478078,0.5321402 z"
   id="path8"
   style="stroke-width:0.0494543" /><path
   d="m 23.521922,2.1286132 h -0.93225 V 0.53214025 C 22.589672,0.23823437 22.375641,0 22.111594,0 21.847547,0 21.633516,0.23823437 21.633516,0.53214025 V 2.1286132 H 17.533922 V 0.53214025 C 17.533922,0.23823437 17.319891,0 17.055844,0 16.791797,0 16.577766,0.23823437 16.577766,0.53214025 V 2.1286132 H 12.478172 V 0.53214025 C 12.478172,0.23823437 12.264141,0 12.000094,0 11.736047,0 11.522016,0.23823437 11.522016,0.53214025 V 2.1286132 H 7.4224219 V 0.53214025 C 7.4224219,0.23823437 7.2083906,0 6.9443437,0 6.6802969,0 6.4662656,0.23823437 6.4662656,0.53214025 V 2.1286132 H 0.47807813 C 0.21403125,2.1286132 0,2.3668475 0,2.6607534 V 23.46786 C 0,23.761766 0.21403125,24 0.47807813,24 H 23.521922 C 23.785969,24 24,23.761766 24,23.46786 V 2.6607534 C 24,2.3668475 23.785969,2.1286132 23.521922,2.1286132 Z M 23.043844,22.93572 H 0.95615625 V 3.1928937 H 23.043797 V 22.93572 Z"
   id="path10"
   style="stroke-width:0.0494543;fill:#000000;fill-opacity:1" /><path
   style="fill:#ffbc52;stroke-width:0.0494543"
   d="m 18.741047,14.314881 c 0.928875,0 1.771219,0.410309 2.390437,1.075967 V 5.417458 H 2.8685156 V 20.764479 H 16.228922 c -0.576516,-0.685015 -0.930141,-1.605343 -0.930141,-2.618074 4.7e-5,-2.116143 1.541156,-3.831524 3.442266,-3.831524 z"
   id="path12" /><path
   style="fill:#d1392a;stroke-width:0.0494543"
   d="m 21.131484,15.390796 c -0.619218,-0.66571 -1.461562,-1.075968 -2.390437,-1.075968 -1.901109,0 -3.442219,1.715382 -3.442219,3.831473 0,1.012731 0.353578,1.933058 0.930141,2.618073 0.628078,0.746374 1.520859,1.213399 2.512125,1.213399 1.901109,0 3.442218,-1.715381 3.442218,-3.831472 -4.6e-5,-1.082073 -0.403734,-2.05875 -1.051828,-2.755505 z"
   id="path14" /><path
   d="M 21.609563,15.176354 V 5.4174058 c 0,-0.2939059 -0.214032,-0.5321402 -0.478079,-0.5321402 H 2.8685156 c -0.2640469,0 -0.4780781,0.2382343 -0.4780781,0.5321402 V 20.764427 c 0,0.293905 0.2140313,0.53214 0.4780781,0.53214 H 16.032562 c 0.704485,0.750704 1.658532,1.213399 2.708485,1.213399 2.161687,0 3.920297,-1.957529 3.920297,-4.363613 0,-1.146457 -0.399844,-2.190441 -1.051781,-2.969999 z M 17.920687,5.9495461 h 2.732719 v 2.6919545 h -2.732719 z m 0,3.756235 h 2.732719 v 2.8610559 h -2.732719 z m 2.732719,3.9253889 v 0.707972 C 20.08725,13.985443 19.435172,13.78274 18.741047,13.78274 c -0.281344,0 -0.555656,0.03386 -0.82036,0.09684 V 13.63117 Z M 14.298562,5.9495461 h 2.665969 v 2.6919545 h -2.665969 z m 0,3.756235 h 2.665969 v 2.8610559 h -2.665969 z m 0,3.9253889 h 2.665969 v 0.627256 c -0.829687,0.471617 -1.489406,1.26187 -1.847531,2.22566 H 14.298563 Z M 6.0417656,20.232286 H 3.3465938 v -2.683919 h 2.6951718 z m 0,-3.748147 H 3.3465938 v -2.852917 h 2.6951718 z m 0,-3.917302 H 3.3465938 V 9.7057811 h 2.6951718 z m 0,-3.9253364 H 3.3465938 V 5.9495461 H 6.0417656 Z M 9.7014375,20.232286 H 6.9979687 v -2.683919 h 2.7034688 z m 0,-3.748147 H 6.9979687 v -2.852917 h 2.7034688 z m 0,-3.917302 H 6.9979687 V 9.7057811 h 2.7034688 z m 0,-3.9253364 H 6.9979687 V 5.9495461 H 9.7014375 Z M 13.342359,20.232286 h -2.684765 v -2.683919 h 2.684765 z m 0,-3.748147 h -2.684765 v -2.852917 h 2.684765 z m 0,-3.917302 H 10.657594 V 9.7057811 h 2.684765 z m 0,-3.9253364 H 10.657594 V 5.9495461 h 2.684765 z m 0.956203,8.9069184 h 0.559876 c -0.02419,0.195607 -0.03773,0.395023 -0.03773,0.597934 0,0.755087 0.173344,1.465877 0.477844,2.085933 h -1.000031 v -2.683867 z m 4.442485,3.897266 c -1.634438,0 -2.964141,-1.480069 -2.964141,-3.299332 0,-1.819263 1.329703,-3.299332 2.964141,-3.299332 1.634437,0 2.96414,1.480069 2.96414,3.299332 0,1.819263 -1.329703,3.299332 -2.96414,3.299332 z"
   id="path16"
   style="stroke-width:0.0494543" /><path
   d="m 18.023906,20.115308 c -0.122344,0 -0.244734,-0.05191 -0.338062,-0.155849 l -0.956157,-1.064332 c -0.186703,-0.207816 -0.186703,-0.544767 0,-0.752635 0.186704,-0.207816 0.489422,-0.207816 0.676172,0 l 0.618094,0.688093 1.861125,-2.071585 c 0.186703,-0.207816 0.489422,-0.207816 0.676172,0 0.186703,0.207816 0.186703,0.544767 0,0.752635 l -2.199188,2.447877 c -0.09342,0.103829 -0.215812,0.155796 -0.338156,0.155796 z"
   id="path18"
   style="stroke-width:0.0494543" />
</svg>
