<?xml version="1.0" encoding="UTF-8" standalone="no"?>
<!-- Uploaded to: SVG Repo, www.svgrepo.com, Generator: SVG Repo Mixer Tools -->

<svg
   height="25.000002"
   width="25.000002"
   version="1.1"
   id="_x32_"
   viewBox="0 0 16.000001 16.000001"
   xml:space="preserve"
   sodipodi:docname="palette.svg"
   inkscape:version="1.2.1 (9c6d41e410, 2022-07-14)"
   xmlns:inkscape="http://www.inkscape.org/namespaces/inkscape"
   xmlns:sodipodi="http://sodipodi.sourceforge.net/DTD/sodipodi-0.dtd"
   xmlns="http://www.w3.org/2000/svg"
   xmlns:svg="http://www.w3.org/2000/svg"><defs
   id="defs23" /><sodipodi:namedview
   id="namedview21"
   pagecolor="#ffffff"
   bordercolor="#000000"
   borderopacity="0.25"
   inkscape:showpageshadow="2"
   inkscape:pageopacity="0.0"
   inkscape:pagecheckerboard="true"
   inkscape:deskcolor="#d1d1d1"
   showgrid="false"
   inkscape:zoom="31.359998"
   inkscape:cx="12.500001"
   inkscape:cy="12.500001"
   inkscape:window-width="1680"
   inkscape:window-height="987"
   inkscape:window-x="-8"
   inkscape:window-y="-8"
   inkscape:window-maximized="1"
   inkscape:current-layer="_x32_" />
<style
   type="text/css"
   id="style2">
	.st0{fill:#000000;}
</style>
<g
   id="g18"
   transform="matrix(0.03124988,0,0,0.03172243,1.562494e-8,-0.12092589)"
   style="fill:#ffffff;fill-opacity:1;stroke:#ffffff;stroke-width:0;stroke-dasharray:none;stroke-opacity:1">
	<path
   class="st0"
   d="M 468.277,116.662 C 440.675,75.816 401.617,43.377 355.661,23.934 325.023,10.979 291.311,3.812 256.007,3.812 c -35.303,0 -68.914,7.166 -99.421,20.135 C 126.079,36.917 98.675,55.667 75.642,78.823 29.582,125.11 0.966,189.104 0.014,259.601 v 0.013 C 0.007,260.484 0,261.354 0,262.21 c 0,18.834 2.796,34.96 7.865,48.553 5.056,13.585 12.442,24.608 21.286,32.857 5.892,5.508 12.407,9.77 19.176,12.812 9.037,4.056 18.491,5.946 27.658,5.946 8.187,0 16.147,-1.493 23.485,-4.384 7.331,-2.898 14.065,-7.2 19.587,-12.921 14.641,-15.181 35.708,-24.334 59.042,-24.341 17.401,0.007 33.44,5.262 46.826,14.298 13.373,9.03 24.019,21.854 30.363,36.865 4.234,10.016 6.577,20.998 6.577,32.603 0.007,4.679 -0.753,9.551 -1.966,14.894 -1.192,5.33 -2.843,11.071 -4.281,17.415 -1.35,5.988 -2.014,11.722 -2.014,17.196 -0.028,10.125 2.37,19.388 6.694,27.061 4.302,7.694 10.406,13.654 17.072,17.867 4.446,2.822 9.153,4.905 13.914,6.385 6.351,1.96 12.798,2.864 19.053,2.871 5.857,-0.007 11.564,-0.788 16.976,-2.46 52.951,-16.387 99.058,-48.594 132.012,-91.364 32.946,-42.75 52.69,-96.215 52.677,-154.558 0.011,-52.964 -16.13,-102.298 -43.725,-143.143 z M 435.803,396.25 c -29.157,37.872 -70.167,66.564 -117.261,81.129 -2.165,0.671 -5.076,1.137 -8.207,1.124 -3.775,0.013 -7.852,-0.644 -11.483,-1.946 -3.652,-1.294 -6.816,-3.192 -9.235,-5.549 -1.616,-1.576 -2.932,-3.357 -3.98,-5.508 -1.384,-2.878 -2.343,-6.482 -2.357,-11.496 0,-3.042 0.37,-6.584 1.295,-10.674 1.164,-5.214 2.822,-10.975 4.281,-17.408 1.446,-6.427 2.686,-13.565 2.686,-21.424 0.006,-23.443 -7.153,-45.353 -19.382,-63.439 -12.229,-18.1 -29.52,-32.467 -49.902,-41.086 -13.579,-5.748 -28.541,-8.926 -44.161,-8.926 -31.124,0 -60.014,12.277 -80.403,33.418 -2.274,2.357 -5.378,4.44 -9.118,5.92 -3.727,1.466 -8.057,2.316 -12.592,2.316 -5.714,0 -11.715,-1.329 -17.402,-4.268 -5.686,-2.953 -11.133,-7.475 -15.867,-14.312 -3.151,-4.563 -5.981,-10.167 -8.2,-17.073 -2.967,-9.194 -4.837,-20.703 -4.837,-34.837 0,-0.733 0.007,-1.472 0.014,-2.213 v 0.007 c 0.637,-47.012 15.072,-90.563 39.44,-126.73 24.382,-36.159 58.699,-64.858 99.065,-82.012 26.917,-11.442 56.521,-17.771 87.809,-17.771 46.922,0.007 90.385,14.236 126.524,38.639 36.132,24.403 64.844,58.994 82.013,99.585 11.448,27.068 17.778,56.802 17.778,88.09 -0.013,51.622 -17.36,98.558 -46.518,136.444 z"
   id="path4"
   style="fill:#ffffff;fill-opacity:1;stroke:#ffffff;stroke-width:0;stroke-dasharray:none;stroke-opacity:1" />
	<path
   class="st0"
   d="m 392.273,296.061 c -6.221,-2.631 -13.086,-4.09 -20.225,-4.09 -10.708,-0.007 -20.772,3.282 -29.048,8.886 -8.282,5.59 -14.846,13.496 -18.799,22.834 -2.637,6.22 -4.09,13.085 -4.09,20.217 -0.007,10.715 3.282,20.779 8.879,29.048 5.597,8.29 13.503,14.852 22.841,18.806 6.22,2.638 13.085,4.09 20.217,4.09 10.716,0 20.78,-3.281 29.055,-8.879 8.276,-5.604 14.846,-13.503 18.799,-22.841 2.638,-6.221 4.09,-13.085 4.09,-20.224 0.007,-10.708 -3.281,-20.772 -8.878,-29.048 -5.598,-8.276 -13.504,-14.853 -22.841,-18.799 z m 1.321,62.357 c -2.802,4.152 -6.796,7.467 -11.44,9.427 -3.097,1.302 -6.482,2.028 -10.106,2.035 -5.418,-0.007 -10.345,-1.624 -14.503,-4.433 -4.152,-2.795 -7.468,-6.789 -9.427,-11.434 -1.308,-3.096 -2.034,-6.482 -2.034,-10.106 0.006,-5.419 1.623,-10.345 4.425,-14.51 2.802,-4.152 6.796,-7.454 11.441,-9.42 3.097,-1.308 6.481,-2.034 10.098,-2.034 5.426,0.006 10.352,1.63 14.518,4.426 4.145,2.809 7.461,6.796 9.42,11.441 1.309,3.097 2.035,6.481 2.035,10.098 -0.007,5.426 -1.625,10.352 -4.427,14.51 z"
   id="path6"
   style="fill:#ffffff;fill-opacity:1;stroke:#ffffff;stroke-width:0;stroke-dasharray:none;stroke-opacity:1" />
	<path
   class="st0"
   d="m 126.462,175.094 c -20.998,0 -38.022,17.024 -38.022,38.03 0,20.991 17.024,38.023 38.022,38.023 21.005,0 38.03,-17.032 38.03,-38.023 0,-21.006 -17.025,-38.03 -38.03,-38.03 z"
   id="path8"
   style="fill:#ffffff;fill-opacity:1;stroke:#ffffff;stroke-width:0;stroke-dasharray:none;stroke-opacity:1" />
	<path
   class="st0"
   d="m 193.245,100.274 c -18.265,0 -33.076,14.812 -33.076,33.077 0,18.271 14.812,33.083 33.076,33.083 18.271,0 33.084,-14.812 33.084,-33.083 0,-18.265 -14.813,-33.077 -33.084,-33.077 z"
   id="path10"
   style="fill:#ffffff;fill-opacity:1;stroke:#ffffff;stroke-width:0;stroke-dasharray:none;stroke-opacity:1" />
	<path
   class="st0"
   d="m 288.782,90.382 c -16.387,0 -29.679,13.29 -29.679,29.678 0,16.388 13.292,29.679 29.679,29.679 16.387,0 29.678,-13.291 29.678,-29.679 0,-16.388 -13.291,-29.678 -29.678,-29.678 z"
   id="path12"
   style="fill:#ffffff;fill-opacity:1;stroke:#ffffff;stroke-width:0;stroke-dasharray:none;stroke-opacity:1" />
	<path
   class="st0"
   d="m 361.745,190.392 c 14.599,0 26.431,-11.838 26.431,-26.431 0,-14.599 -11.832,-26.431 -26.431,-26.431 -14.6,0 -26.431,11.832 -26.431,26.431 0,14.592 11.831,26.431 26.431,26.431 z"
   id="path14"
   style="fill:#ffffff;fill-opacity:1;stroke:#ffffff;stroke-width:0;stroke-dasharray:none;stroke-opacity:1" />
	<path
   class="st0"
   d="m 376.933,233.834 c 0,11.42 9.262,20.669 20.676,20.669 11.42,0 20.676,-9.249 20.676,-20.669 0,-11.42 -9.256,-20.67 -20.676,-20.67 -11.414,0 -20.676,9.25 -20.676,20.67 z"
   id="path16"
   style="fill:#ffffff;fill-opacity:1;stroke:#ffffff;stroke-width:0;stroke-dasharray:none;stroke-opacity:1" />
</g>
</svg>
