<?xml version="1.0" encoding="UTF-8" standalone="no"?>
<svg
   id="Layer_1"
   data-name="Layer 1"
   viewBox="0 0 25 25"
   version="1.1"
   sodipodi:docname="reservations.svg"
   inkscape:version="1.2.1 (9c6d41e410, 2022-07-14)"
   width="25"
   height="25"
   xmlns:inkscape="http://www.inkscape.org/namespaces/inkscape"
   xmlns:sodipodi="http://sodipodi.sourceforge.net/DTD/sodipodi-0.dtd"
   xmlns="http://www.w3.org/2000/svg"
   xmlns:svg="http://www.w3.org/2000/svg"
   xmlns:rdf="http://www.w3.org/1999/02/22-rdf-syntax-ns#"
   xmlns:cc="http://creativecommons.org/ns#"
   xmlns:dc="http://purl.org/dc/elements/1.1/">
  <defs
     id="defs919" />
  <sodipodi:namedview
     id="namedview917"
     pagecolor="#ffffff"
     bordercolor="#666666"
     borderopacity="1.0"
     inkscape:pageshadow="2"
     inkscape:pageopacity="0.0"
     inkscape:pagecheckerboard="true"
     showgrid="false"
     inkscape:zoom="32.56"
     inkscape:cx="12.484644"
     inkscape:cy="12.5"
     inkscape:window-width="1920"
     inkscape:window-height="1017"
     inkscape:window-x="1352"
     inkscape:window-y="-8"
     inkscape:window-maximized="1"
     inkscape:current-layer="g4632"
     inkscape:showpageshadow="2"
     inkscape:deskcolor="#d1d1d1" />
  <title
     id="title882">Artboard 24</title>
  <g
     id="g4632"
     transform="translate(10.894951,-0.50000005)">
    <path
       d="M 10.517705,0.74509804 H 6.0613781 V 4.0873441 H 3.8332121 V 3.3854724 c 0,-0.8429475 -0.683344,-1.5262917 -1.526291,-1.5262924 H 0.90317711 c -0.842947,7e-7 -1.526291,0.6833449 -1.526291,1.5262924 V 4.0873441 H -2.8512789 V 0.74509804 h -4.456328 c -1.086891,0 -2.0526072,0.51881126 -2.6630112,1.32229636 -0.4262479,0.561077 -0.6792349,1.2609692 -0.6792349,2.0199497 V 21.912657 c 1e-6,1.845871 1.496375,3.342245 3.3422461,3.342245 H 10.517705 c 1.845871,0 3.342245,-1.496374 3.342246,-3.342245 V 4.0873441 c 0,-1.8458715 -1.496374,-3.34224606 -3.342246,-3.34224606 z"
       id="path914"
       style="fill:#ffffff;fill-opacity:0.80000001;stroke:#000000;stroke-width:0.490196;stroke-dasharray:none;stroke-opacity:1"
       sodipodi:nodetypes="scccsssscccssscsssss" />
    <rect
       style="fill:#000000;stroke:none;stroke-width:0.519654;stroke-dasharray:none"
       id="rect2598"
       width="3.0000055"
       height="3"
       x="-6.8949509"
       y="8"
       ry="0" />
    <rect
       style="fill:#000000;stroke:none;stroke-width:0.519654;stroke-dasharray:none"
       id="rect16814"
       width="3.0000055"
       height="3"
       x="-2.228286"
       y="8"
       ry="0" />
    <rect
       style="fill:#000000;stroke:none;stroke-width:0.519654;stroke-dasharray:none"
       id="rect16816"
       width="3.0000055"
       height="3"
       x="2.4383788"
       y="8"
       ry="0" />
    <rect
       style="fill:#000000;stroke:none;stroke-width:0.519654;stroke-dasharray:none"
       id="rect16818"
       width="3.0000055"
       height="3"
       x="7.1050434"
       y="8"
       ry="0" />
    <rect
       style="fill:#000000;stroke:none;stroke-width:0.519654;stroke-dasharray:none"
       id="rect17719"
       width="3.0000055"
       height="3"
       x="-6.8949509"
       y="13"
       ry="0" />
    <rect
       style="fill:#000000;stroke:none;stroke-width:0.519654;stroke-dasharray:none"
       id="rect17721"
       width="3.0000055"
       height="3"
       x="-2.228286"
       y="13"
       ry="0" />
    <rect
       style="fill:#000000;stroke:none;stroke-width:0.519654;stroke-dasharray:none"
       id="rect17723"
       width="3.0000055"
       height="3"
       x="2.4383788"
       y="13"
       ry="0" />
    <rect
       style="fill:#000000;stroke:none;stroke-width:0.519654;stroke-dasharray:none"
       id="rect17725"
       width="3.0000055"
       height="3"
       x="7.1050434"
       y="13"
       ry="0" />
    <rect
       style="fill:#000000;stroke:none;stroke-width:0.519654;stroke-dasharray:none"
       id="rect17727"
       width="3.0000055"
       height="3"
       x="-6.8949509"
       y="18"
       ry="0" />
    <rect
       style="fill:#000000;stroke:none;stroke-width:0.519654;stroke-dasharray:none"
       id="rect17729"
       width="3.0000055"
       height="3"
       x="-2.228286"
       y="18"
       ry="0" />
    <rect
       style="fill:#000000;stroke:none;stroke-width:0.519654;stroke-dasharray:none"
       id="rect17731"
       width="3.0000055"
       height="3"
       x="2.4383788"
       y="18"
       ry="0" />
    <rect
       style="fill:#000000;stroke:none;stroke-width:0.519654;stroke-dasharray:none"
       id="rect17733"
       width="3.0000055"
       height="3"
       x="7.1050434"
       y="18"
       ry="0" />
  </g>
  <metadata
     id="metadata1901">
    <rdf:RDF>
      <cc:Work
         rdf:about="">
        <dc:title>Artboard 24</dc:title>
      </cc:Work>
    </rdf:RDF>
  </metadata>
</svg>
