<?xml version="1.0" encoding="UTF-8" standalone="no"?>
<!-- Uploaded to: SVG Repo, www.svgrepo.com, Generator: SVG Repo Mixer Tools -->

<svg
   height="25.000326"
   width="24.999678"
   version="1.1"
   id="Layer_1"
   viewBox="0 0 15.999794 16.000209"
   xml:space="preserve"
   sodipodi:docname="settings.svg"
   inkscape:version="1.2.1 (9c6d41e410, 2022-07-14)"
   xmlns:inkscape="http://www.inkscape.org/namespaces/inkscape"
   xmlns:sodipodi="http://sodipodi.sourceforge.net/DTD/sodipodi-0.dtd"
   xmlns="http://www.w3.org/2000/svg"
   xmlns:svg="http://www.w3.org/2000/svg"><defs
   id="defs9" /><sodipodi:namedview
   id="namedview7"
   pagecolor="#ffffff"
   bordercolor="#000000"
   borderopacity="0.25"
   inkscape:showpageshadow="2"
   inkscape:pageopacity="0.0"
   inkscape:pagecheckerboard="true"
   inkscape:deskcolor="#d1d1d1"
   showgrid="false"
   inkscape:zoom="32.559575"
   inkscape:cx="12.484807"
   inkscape:cy="12.500163"
   inkscape:window-width="1920"
   inkscape:window-height="1017"
   inkscape:window-x="1352"
   inkscape:window-y="-8"
   inkscape:window-maximized="1"
   inkscape:current-layer="Layer_1" />

<path
   style="fill:#ffffff;fill-opacity:0.80000001;stroke:none;stroke-width:0.639999;stroke-dasharray:none"
   d="m 7.9998964,4.2701626 c -2.05854,0 -3.72753,1.6700699 -3.72753,3.7299418 0,2.0598716 1.66899,3.7299416 3.72753,3.7299416 2.0585396,0 3.7275306,-1.67007 3.7275306,-3.7299416 -2.4e-4,-2.0598719 -1.66899,-3.7297016 -3.7275306,-3.7299418 z"
   id="path2"
   sodipodi:nodetypes="csscc" /><path
   style="fill:#ffffff;fill-opacity:0.80000001;stroke:#000000;stroke-width:0.639999;stroke-dasharray:none"
   d="M 15.679897,9.1514237 V 6.8473139 l -1.70448,-0.1706904 c -0.1542,-0.6978912 -0.43002,-1.3632414 -0.81513,-1.9652207 l 1.08651,-1.3282088 -1.62876,-1.6290633 -1.32585,1.0862223 c -0.6021,-0.3860796 -1.2675,-0.6630987 -1.9654505,-0.8183891 l -0.17058,-1.7018604 h -2.31204 l -0.17058,1.7018604 c -0.69843,0.1550202 -1.3641,0.4320393 -1.96617,0.8183891 l -1.32561,-1.085712 -1.62825,1.6290934 1.08576,1.3279386 c -0.38508,0.6022494 -0.6612,1.2675696 -0.81561,1.9654608 L 0.31989653,6.8478242 V 9.151934 L 2.0236265,9.3226244 c 0.1542,0.6983716 0.43029,1.3639616 0.81561,1.9662116 l -1.08573,1.327668 1.62825,1.629063 1.32585,-1.085712 c 0.6021,0.38659 1.26774,0.66385 1.96644,0.81839 l 0.17058,1.70186 h 2.31228 l 0.17058,-1.70186 c 0.6984305,-0.155531 1.3641005,-0.43303 1.9661705,-0.819891 l 1.32609,1.085953 1.62825,-1.629304 -1.08651,-1.328689 c 0.38484,-0.601979 0.66045,-1.267089 0.81438,-1.9647103 z M 7.9998965,11.72931 c -2.05854,2.41e-4 -3.72753,-1.669799 -3.72777,-3.7297011 -2.4e-4,-2.0598718 1.66872,-3.7299417 3.72729,-3.7301818 2.0585705,-2.402e-4 3.7275305,1.6697996 3.7277705,3.7297015 0,2.402e-4 0,7.505e-4 0,9.907e-4 -5.1e-4,2.0596317 -1.66899,3.7289507 -3.7272905,3.7291907 z"
   id="path4" />
</svg>
