<?xml version="1.0" encoding="UTF-8" standalone="no"?>
<!-- Uploaded to: SVG Repo, www.svgrepo.com, Generator: SVG Repo Mixer Tools -->

<svg
   fill="#000000"
   version="1.1"
   id="Layer_1"
   width="25"
   height="25"
   viewBox="0 0 16 16"
   enable-background="new 0 0 512 512"
   xml:space="preserve"
   sodipodi:docname="users.svg"
   inkscape:version="1.2.1 (9c6d41e410, 2022-07-14)"
   xmlns:inkscape="http://www.inkscape.org/namespaces/inkscape"
   xmlns:sodipodi="http://sodipodi.sourceforge.net/DTD/sodipodi-0.dtd"
   xmlns="http://www.w3.org/2000/svg"
   xmlns:svg="http://www.w3.org/2000/svg"><defs
   id="defs28106">
	
	
</defs><sodipodi:namedview
   id="namedview28104"
   pagecolor="#ffffff"
   bordercolor="#000000"
   borderopacity="0.25"
   inkscape:showpageshadow="2"
   inkscape:pageopacity="0.0"
   inkscape:pagecheckerboard="true"
   inkscape:deskcolor="#d1d1d1"
   showgrid="false"
   inkscape:zoom="32.56"
   inkscape:cx="12.5"
   inkscape:cy="12.5"
   inkscape:window-width="1920"
   inkscape:window-height="1017"
   inkscape:window-x="1352"
   inkscape:window-y="-8"
   inkscape:window-maximized="1"
   inkscape:current-layer="Layer_1" />
<circle
   style="fill:#ffffff;fill-opacity:0.80000001;stroke:#000000;stroke-width:0.346534;stroke-opacity:1"
   id="path22674"
   cx="8"
   cy="8"
   r="7.8267326" /><path
   d="M 10.774983,9.9917916 C 10.140052,9.8832976 9.2707506,9.2675725 9.2707506,9.0003455 V 8.3250956 c 0,-0.2517505 0.3410378,-0.722989 0.4861199,-1.1570046 C 9.7705255,7.127177 9.8579444,7.174281 9.9429054,7.070747 10.102869,6.8735614 10.12644,6.5740719 10.163028,6.4376806 10.221323,6.223153 9.9608818,6.2144625 9.9608818,6.2144625 c 0,0 0.1940912,-1.126012 0.021707,-1.837215 -0.233139,-0.9685092 -1.4881216,-1.456494 -1.9792017,-1.456494 -0.491715,0 -1.7448324,0.4879848 -1.9792016,1.456494 -0.1723841,0.711203 0.026032,1.837215 0.026032,1.837215 0,0 -0.2511157,0.00868 -0.1934559,0.2232181 0.037222,0.1364316 0.078136,0.4358808 0.2393296,0.6330668 0.084327,0.1035334 0.1351615,0.05643 0.1488122,0.097344 0.145082,0.4340554 0.4861197,0.9052541 0.4861197,1.1570046 v 0.6752499 c 0,0.267227 -0.8699359,0.8829521 -1.5048678,0.9914461 -0.8153716,0.138891 -1.2183947,0.702512 -1.0274388,2.108173 0.095478,0.701915 1.948209,1.003865 3.7835589,0.977833 1.83535,0.02603 3.7159786,-0.275918 3.8114566,-0.977833 0.191589,-1.405661 -0.202742,-1.969282 -1.018749,-2.1081734 z"
   id="path28099"
   style="fill:#000000;stroke:#000000;stroke-width:0.32;stroke-dasharray:none;stroke-opacity:1;fill-opacity:1;opacity:0.5" />
</svg>
