<?xml version="1.0" encoding="UTF-8" standalone="no"?>
<!-- Generator: Adobe Illustrator 19.0.0, SVG Export Plug-In . SVG Version: 6.00 Build 0)  -->

<svg
   version="1.1"
   id="Layer_1"
   x="0px"
   y="0px"
   viewBox="0 0 24 24"
   xml:space="preserve"
   sodipodi:docname="embarkation.svg"
   inkscape:version="1.3 (0e150ed6c4, 2023-07-21)"
   width="24"
   height="24"
   xmlns:inkscape="http://www.inkscape.org/namespaces/inkscape"
   xmlns:sodipodi="http://sodipodi.sourceforge.net/DTD/sodipodi-0.dtd"
   xmlns="http://www.w3.org/2000/svg"
   xmlns:svg="http://www.w3.org/2000/svg"><defs
   id="defs59" /><sodipodi:namedview
   id="namedview57"
   pagecolor="#ffffff"
   bordercolor="#000000"
   borderopacity="0.25"
   inkscape:showpageshadow="2"
   inkscape:pageopacity="0.0"
   inkscape:pagecheckerboard="true"
   inkscape:deskcolor="#d1d1d1"
   showgrid="false"
   inkscape:zoom="11.991353"
   inkscape:cx="-1.5427784"
   inkscape:cy="5.6290564"
   inkscape:window-width="1920"
   inkscape:window-height="1017"
   inkscape:window-x="1352"
   inkscape:window-y="-8"
   inkscape:window-maximized="1"
   inkscape:current-layer="Layer_1" />&#10;&#10;&#10;&#10;&#10;&#10;&#10;&#10;&#10;&#10;&#10;&#10;&#10;&#10;&#10;&#10;&#10;&#10;&#10;&#10;&#10;&#10;&#10;&#10;&#10;&#10;&#10;&#10;<g
   id="g1"
   transform="matrix(0.98295175,0,0,1.0220252,0.21812291,-0.27263711)"><path
     style="fill:none;stroke:#f2ca7f;stroke-width:1.38127;stroke-dasharray:none;stroke-opacity:1"
     d="M 14.164159,4.0193712 13.661591,2.6783211 C 13.272901,1.6410613 12.137617,0.94412648 10.836469,0.94412648 H 6.4736835 c -0.4324717,0 -0.7830485,0.29289512 -0.7830485,0.65412472 v 2.6165373 c 0,0.3612681 0.3506228,0.6541247 0.7830485,0.6541247 h 6.9430985 c 0.249187,0 0.48349,-0.099017 0.631057,-0.2667932 0.147567,-0.1677371 0.190703,-0.3840976 0.11632,-0.5827488 z"
     id="path2" /><path
     style="fill:none;stroke:#f2ca7f;stroke-width:1.5993;stroke-dasharray:none;stroke-opacity:1"
     d="M 20.47147,9.0682772 16.335961,5.7963505 C 15.432618,5.0817058 14.381271,4.703902 13.295585,4.703902 H 5.79965 v 5.1154671 c 0,0.4985669 0.3406002,0.9027229 0.7606649,0.9027229 H 20.027095 c 0.309666,0 0.5999,-0.208586 0.721493,-0.546596 C 20.8944,9.7702773 20.773708,9.3073602 20.47147,9.0682772 Z"
     id="path6" /><path
     style="fill:none;stroke:#f2ca7f;stroke-width:1.84166;stroke-dasharray:none;stroke-opacity:1"
     d="M 22.523522,10.502908 H 3.9647377 c -0.3036756,0 -0.5772699,0.298413 -0.692442,0.755379 l -2.49450008,9.896624 c -0.0946041,0.375254 -0.0679582,0.802572 0.0710411,1.139298 0.13895526,0.336798 0.37198608,0.538892 0.62140078,0.538892 H 16.437018 c 3.768748,0 6.834837,-4.985444 6.834837,-11.113408 0,-0.67195 -0.335034,-1.216785 -0.748333,-1.216785 z"
     id="path10" /></g><g
   id="g26"
   style="fill:none;stroke:#f2ca7f;stroke-width:32.7925;stroke-dasharray:none;stroke-opacity:1"
   transform="matrix(0.04404287,0,0,0.07161347,0.72190522,-6.3294083)">&#10;</g><g
   id="g28"
   style="fill:none;stroke:#f2ca7f;stroke-width:32.7925;stroke-dasharray:none;stroke-opacity:1"
   transform="matrix(0.04404287,0,0,0.07161347,0.72190522,-6.3294083)">&#10;</g><g
   id="g30"
   style="fill:none;stroke:#f2ca7f;stroke-width:32.7925;stroke-dasharray:none;stroke-opacity:1"
   transform="matrix(0.04404287,0,0,0.07161347,0.72190522,-6.3294083)">&#10;</g><g
   id="g32"
   style="fill:none;stroke:#f2ca7f;stroke-width:32.7925;stroke-dasharray:none;stroke-opacity:1"
   transform="matrix(0.04404287,0,0,0.07161347,0.72190522,-6.3294083)">&#10;</g><g
   id="g34"
   style="fill:none;stroke:#f2ca7f;stroke-width:32.7925;stroke-dasharray:none;stroke-opacity:1"
   transform="matrix(0.04404287,0,0,0.07161347,0.72190522,-6.3294083)">&#10;</g><g
   id="g36"
   style="fill:none;stroke:#f2ca7f;stroke-width:32.7925;stroke-dasharray:none;stroke-opacity:1"
   transform="matrix(0.04404287,0,0,0.07161347,0.72190522,-6.3294083)">&#10;</g><g
   id="g38"
   style="fill:none;stroke:#f2ca7f;stroke-width:32.7925;stroke-dasharray:none;stroke-opacity:1"
   transform="matrix(0.04404287,0,0,0.07161347,0.72190522,-6.3294083)">&#10;</g><g
   id="g40"
   style="fill:none;stroke:#f2ca7f;stroke-width:32.7925;stroke-dasharray:none;stroke-opacity:1"
   transform="matrix(0.04404287,0,0,0.07161347,0.72190522,-6.3294083)">&#10;</g><g
   id="g42"
   style="fill:none;stroke:#f2ca7f;stroke-width:32.7925;stroke-dasharray:none;stroke-opacity:1"
   transform="matrix(0.04404287,0,0,0.07161347,0.72190522,-6.3294083)">&#10;</g><g
   id="g44"
   style="fill:none;stroke:#f2ca7f;stroke-width:32.7925;stroke-dasharray:none;stroke-opacity:1"
   transform="matrix(0.04404287,0,0,0.07161347,0.72190522,-6.3294083)">&#10;</g><g
   id="g46"
   style="fill:none;stroke:#f2ca7f;stroke-width:32.7925;stroke-dasharray:none;stroke-opacity:1"
   transform="matrix(0.04404287,0,0,0.07161347,0.72190522,-6.3294083)">&#10;</g><g
   id="g48"
   style="fill:none;stroke:#f2ca7f;stroke-width:32.7925;stroke-dasharray:none;stroke-opacity:1"
   transform="matrix(0.04404287,0,0,0.07161347,0.72190522,-6.3294083)">&#10;</g><g
   id="g50"
   style="fill:none;stroke:#f2ca7f;stroke-width:32.7925;stroke-dasharray:none;stroke-opacity:1"
   transform="matrix(0.04404287,0,0,0.07161347,0.72190522,-6.3294083)">&#10;</g><g
   id="g52"
   style="fill:none;stroke:#f2ca7f;stroke-width:32.7925;stroke-dasharray:none;stroke-opacity:1"
   transform="matrix(0.04404287,0,0,0.07161347,0.72190522,-6.3294083)">&#10;</g><g
   id="g54"
   style="fill:none;stroke:#f2ca7f;stroke-width:32.7925;stroke-dasharray:none;stroke-opacity:1"
   transform="matrix(0.04404287,0,0,0.07161347,0.72190522,-6.3294083)">&#10;</g><g
   id="g3608"
   style="opacity:1;fill:#f7deae;fill-opacity:1;stroke:#f2ca7f;stroke-width:14.6123;stroke-dasharray:none;stroke-opacity:1"
   transform="matrix(-0.13736498,0,0,-0.12941261,16.633274,23.019157)">&#10;	<path
   d="m 51.780876,124.20466 h 22.660079 c 4.610493,0 8.828603,-3.80204 8.828603,-8.60562 V 81.181573 c 0,-4.702524 3.433345,-9.004833 8.043838,-9.004833 h 14.419074 c 7.06288,0 10.9867,-8.10535 6.67148,-13.80741 L 69.142813,3.3397959 c -3.433346,-4.5024164 -10.00575,-4.4023627 -13.341,0 L 13.718808,58.36933 c -4.3162054,5.70206 -0.392382,13.80741 6.6705,13.80741 h 14.518146 c 4.610493,0 8.141934,4.202255 8.141934,9.004833 v 34.417467 c 9.81e-4,4.80358 4.0229,8.60562 8.731488,8.60562 z"
   id="path3606"
   style="fill:#f7deae;fill-opacity:1;stroke:#f2ca7f;stroke-width:14.6123;stroke-dasharray:none;stroke-opacity:1" />&#10;</g></svg>
