<?xml version="1.0" encoding="UTF-8" standalone="no"?>
<!-- Uploaded to: SVG Repo, www.svgrepo.com, Generator: SVG Repo Mixer Tools -->

<svg
   version="1.1"
   id="Layer_1"
   viewBox="0 0 24 24"
   xml:space="preserve"
   sodipodi:docname="reservations.svg"
   width="24"
   height="24"
   inkscape:version="1.3 (0e150ed6c4, 2023-07-21)"
   xmlns:inkscape="http://www.inkscape.org/namespaces/inkscape"
   xmlns:sodipodi="http://sodipodi.sourceforge.net/DTD/sodipodi-0.dtd"
   xmlns="http://www.w3.org/2000/svg"
   xmlns:svg="http://www.w3.org/2000/svg"><defs
   id="defs479" /><sodipodi:namedview
   id="namedview477"
   pagecolor="#ffffff"
   bordercolor="#000000"
   borderopacity="0.25"
   inkscape:showpageshadow="2"
   inkscape:pageopacity="0.0"
   inkscape:pagecheckerboard="true"
   inkscape:deskcolor="#d1d1d1"
   showgrid="false"
   inkscape:zoom="33.916667"
   inkscape:cx="12.014742"
   inkscape:cy="11.985258"
   inkscape:window-width="1920"
   inkscape:window-height="1017"
   inkscape:window-x="1352"
   inkscape:window-y="-8"
   inkscape:window-maximized="1"
   inkscape:current-layer="Layer_1" />&#10;<path
   style="fill:none;fill-opacity:1;stroke:#f2ca7f;stroke-width:1.80363;stroke-dasharray:none;stroke-opacity:1"
   d="m 16.059754,2.9362164 h 5.424678 c 0.891,0 1.61375,0.5241131 1.61375,1.1702376 v 17.821495 c 0,0.646123 -0.72275,1.170237 -1.61375,1.170237 H 2.5163638 c -0.891797,0 -1.61454541,-0.524114 -1.61454541,-1.170237 V 4.106454 c 0,-0.6461245 0.72274841,-1.1702376 1.61454541,-1.1702376 h 5.423825"
   id="path448" />&#10;&#10;<path
   style="fill:#f2ca7f;stroke-width:0.0536747"
   d="M 16.389643,4.3835156 H 7.6107874 v -3.0525 C 7.6107874,0.59596875 8.3921422,0 9.3559749,0 h 5.2883571 c 0.963833,0 1.745188,0.59596875 1.745188,1.3310156 v 3.0525 z"
   id="path452" />&#10;&#10;&#10;<g
   id="g1"
   transform="translate(2.1615358e-4,0.08839632)"><g
     id="g464"
     transform="matrix(0.06146108,0,0,0.046875,-3.7340067,0)"
     style="fill:#f2ca7f;fill-opacity:1;stroke:none;stroke-width:1.00606;stroke-dasharray:none">&#10;	<rect
   x="209.743"
   y="163.222"
   style="fill:#f2ca7f;fill-opacity:1;stroke:none;stroke-width:1.00606;stroke-dasharray:none"
   width="139.735"
   height="18.311001"
   id="rect456" />&#10;	<rect
   x="209.743"
   y="370.09601"
   style="fill:#f2ca7f;fill-opacity:1;stroke:none;stroke-width:1.00606;stroke-dasharray:none"
   width="139.735"
   height="18.311001"
   id="rect458" />&#10;	<rect
   x="209.743"
   y="301.138"
   style="fill:#f2ca7f;fill-opacity:1;stroke:none;stroke-width:1.00606;stroke-dasharray:none"
   width="139.735"
   height="18.311001"
   id="rect460" />&#10;	<rect
   x="209.743"
   y="232.17999"
   style="fill:#f2ca7f;fill-opacity:1;stroke:none;stroke-width:1.00606;stroke-dasharray:none"
   width="139.735"
   height="18.311001"
   id="rect462" />&#10;</g><g
     id="g474"
     transform="matrix(0.06146108,0,0,0.046875,-3.7340067,0)">&#10;	<circle
   style="fill:#f2ca7f"
   cx="171.66901"
   cy="172.377"
   r="9.1549997"
   id="circle466" />&#10;	<circle
   style="fill:#f2ca7f"
   cx="171.66901"
   cy="241.33501"
   r="9.1549997"
   id="circle468" />&#10;	<circle
   style="fill:#f2ca7f"
   cx="171.66901"
   cy="310.293"
   r="9.1549997"
   id="circle470" />&#10;	<circle
   style="fill:#f2ca7f"
   cx="171.66901"
   cy="379.25101"
   r="9.1549997"
   id="circle472" />&#10;</g></g>&#10;</svg>
