<?xml version="1.0" encoding="UTF-8" standalone="no"?>
<!-- Uploaded to: SVG Repo, www.svgrepo.com, Generator: SVG Repo Mixer Tools -->

<svg
   height="24.000002"
   width="24"
   version="1.1"
   id="Layer_1"
   viewBox="0 0 15.36 15.360001"
   xml:space="preserve"
   sodipodi:docname="statistics.svg"
   inkscape:version="1.3 (0e150ed6c4, 2023-07-21)"
   xmlns:inkscape="http://www.inkscape.org/namespaces/inkscape"
   xmlns:sodipodi="http://sodipodi.sourceforge.net/DTD/sodipodi-0.dtd"
   xmlns="http://www.w3.org/2000/svg"
   xmlns:svg="http://www.w3.org/2000/svg"><defs
   id="defs508" /><sodipodi:namedview
   id="namedview506"
   pagecolor="#ffffff"
   bordercolor="#000000"
   borderopacity="0.25"
   inkscape:showpageshadow="2"
   inkscape:pageopacity="0.0"
   inkscape:pagecheckerboard="true"
   inkscape:deskcolor="#d1d1d1"
   showgrid="false"
   inkscape:zoom="33.916664"
   inkscape:cx="11.911549"
   inkscape:cy="12.014743"
   inkscape:window-width="1920"
   inkscape:window-height="1017"
   inkscape:window-x="1352"
   inkscape:window-y="-8"
   inkscape:window-maximized="1"
   inkscape:current-layer="Layer_1" />&#10;&#10;&#10;&#10;<polyline
   style="fill:#f2ca7f;fill-opacity:1"
   points="160,441.6 160,386.928 352,386.928 352,435.2 "
   id="polyline487"
   transform="matrix(0.03,0,0,0.0334099,0,-0.87293387)" /><path
   d="M 11.36016,15.360001 H 3.99984 C 3.58176,15.360001 3.24,14.979395 3.24,14.513795 v 0 c 0,-0.4656 0.34176,-0.846206 0.75984,-0.846206 h 7.35984 c 0.41808,0 0.75984,0.380606 0.75984,0.846206 v 0 c 4.8e-4,0.465066 -0.34128,0.846206 -0.75936,0.846206 z"
   id="path489"
   style="stroke-width:0.0316591;stroke:#f2ca7f;stroke-opacity:1;fill:#f2ca7f;fill-opacity:1" /><path
   style="fill:none;stroke:#f2ca7f;stroke-width:1.27797;stroke-dasharray:none;stroke-opacity:1"
   d="M 13.840888,11.381686 H 1.5191114 c -0.4840699,0 -0.88012701,-0.483423 -0.88012701,-1.074271 V 1.7132545 c 0,-0.5908486 0.39605711,-1.07427011 0.88012701,-1.07427011 H 13.840888 c 0.484071,0 0.880128,0.48342151 0.880128,1.07427011 v 8.5941605 c 0,0.590848 -0.396057,1.074271 -0.880128,1.074271 z"
   id="path491" /><g
   id="g503"
   transform="matrix(0.03,0,0,0.0334099,0,-0.87293387)"
   style="fill:#f2ca7f;fill-opacity:1">&#10;	<polygon
   style="fill:#f2ca7f;fill-opacity:1"
   points="103.088,236.496 91.776,225.184 179.392,137.584 311.04,209.408 414.096,129.264 423.904,141.888 312.576,228.464 182.24,157.376 "
   id="polygon493" />&#10;	<circle
   style="fill:#f2ca7f;fill-opacity:1"
   cx="421.56799"
   cy="135.56799"
   r="24.176001"
   id="circle495" />&#10;	<circle
   style="fill:#f2ca7f;fill-opacity:1"
   cx="97.440002"
   cy="237.168"
   r="24.176001"
   id="circle497" />&#10;	<circle
   style="fill:#f2ca7f;fill-opacity:1"
   cx="178.92799"
   cy="148.20799"
   r="24.176001"
   id="circle499" />&#10;	<circle
   style="fill:#f2ca7f;fill-opacity:1"
   cx="311.80801"
   cy="217.424"
   r="24.176001"
   id="circle501" />&#10;</g>&#10;</svg>
