<?xml version="1.0" encoding="UTF-8" standalone="no"?>
<svg
   enable-background="new 0 0 50 50"
   height="48"
   id="Layer_1"
   version="1.1"
   viewBox="0 0 48 48"
   width="48"
   xml:space="preserve"
   sodipodi:docname="users.svg"
   inkscape:version="1.2.1 (9c6d41e410, 2022-07-14)"
   xmlns:inkscape="http://www.inkscape.org/namespaces/inkscape"
   xmlns:sodipodi="http://sodipodi.sourceforge.net/DTD/sodipodi-0.dtd"
   xmlns="http://www.w3.org/2000/svg"
   xmlns:svg="http://www.w3.org/2000/svg"><defs
     id="defs11" /><sodipodi:namedview
     id="namedview9"
     pagecolor="#ffffff"
     bordercolor="#666666"
     borderopacity="1.0"
     inkscape:pageshadow="2"
     inkscape:pageopacity="0.0"
     inkscape:pagecheckerboard="true"
     showgrid="false"
     inkscape:zoom="16.958333"
     inkscape:cx="24"
     inkscape:cy="24"
     inkscape:window-width="1920"
     inkscape:window-height="1017"
     inkscape:window-x="-8"
     inkscape:window-y="-8"
     inkscape:window-maximized="1"
     inkscape:current-layer="Layer_1"
     inkscape:showpageshadow="2"
     inkscape:deskcolor="#d1d1d1" /><ellipse
     cx="24"
     cy="23.927176"
     fill="none"
     stroke="#000000"
     stroke-linecap="round"
     stroke-miterlimit="10"
     stroke-width="2"
     id="circle2"
     style="fill:#b3b3b3;fill-opacity:0;stroke:#b3b3b3;stroke-width:0.692;stroke-miterlimit:10;stroke-dasharray:none"
     rx="23.704153"
     ry="23.631329" /><path
     d="m 28.872192,34.29345 c -0.144201,-1.587238 -0.08889,-2.694956 -0.08889,-4.145328 0.721001,-0.377117 2.012877,-2.781605 2.231153,-4.812914 0.566924,-0.04628 1.460769,-0.597676 1.722502,-2.774712 C 32.878195,21.39173 32.317196,20.733992 31.975461,20.527217 32.897946,17.761367 34.814032,9.2048582 28.431689,8.3206527 27.774886,7.1705949 26.09288,6.5886734 23.907159,6.5886734 15.162301,6.7491695 14.107466,13.171967 16.02454,20.527217 c -0.340747,0.206775 -0.901745,0.864513 -0.761496,2.033279 0.262722,2.177036 1.155578,2.728434 1.722502,2.774712 0.217288,2.030325 1.560523,4.435797 2.2835,4.812914 0,1.450372 0.05433,2.55809 -0.08988,4.145328 -1.245455,3.337925 -7.641626,3.598855 -11.3315727,6.817638 3.8578517,3.872584 10.1098217,6.642373 16.7074787,6.642373 6.597655,0 14.352864,-5.192985 15.643753,-6.60988 -3.66723,-3.248323 -10.078216,-3.50039 -11.326633,-6.850131 z"
     id="path6"
     style="fill:#b3b3b3;fill-opacity:1;stroke:#b3b3b3;stroke-width:0.493077;stroke-miterlimit:4;stroke-dasharray:none;stroke-opacity:1" /></svg>
