<?xml version="1.0" encoding="UTF-8" standalone="no"?>
<!-- Uploaded to: SVG Repo, www.svgrepo.com, Generator: SVG Repo Mixer Tools -->

<svg
   version="1.1"
   id="Layer_1"
   width="23.999756"
   height="24.000095"
   viewBox="0 0 1.7999817 1.8000071"
   enable-background="new 0 0 60 60"
   xml:space="preserve"
   sodipodi:docname="users.svg"
   inkscape:version="1.2.1 (9c6d41e410, 2022-07-14)"
   xmlns:inkscape="http://www.inkscape.org/namespaces/inkscape"
   xmlns:sodipodi="http://sodipodi.sourceforge.net/DTD/sodipodi-0.dtd"
   xmlns="http://www.w3.org/2000/svg"
   xmlns:svg="http://www.w3.org/2000/svg"><defs
   id="defs11" /><sodipodi:namedview
   id="namedview9"
   pagecolor="#ffffff"
   bordercolor="#000000"
   borderopacity="0.25"
   inkscape:showpageshadow="2"
   inkscape:pageopacity="0.0"
   inkscape:pagecheckerboard="true"
   inkscape:deskcolor="#d1d1d1"
   showgrid="false"
   inkscape:zoom="33.694985"
   inkscape:cx="11.797008"
   inkscape:cy="12.108627"
   inkscape:window-width="1920"
   inkscape:window-height="1017"
   inkscape:window-x="-8"
   inkscape:window-y="-8"
   inkscape:window-maximized="1"
   inkscape:current-layer="Layer_1" />


<path
   fill="none"
   stroke="#555555"
   stroke-width="0.0907926"
   stroke-miterlimit="10"
   d="M 0.33011991,1.5368279 C 0.15543616,1.3802397 0.0453963,1.1528327 0.0453963,0.90000356 c 0,-0.47212527 0.3824763,-0.85460726 0.85459455,-0.85460726 0.47172485,0 0.85459455,0.38248199 0.85459455,0.85460726 0,0.25279884 -0.1096767,0.47981244 -0.2843604,0.63603744 -0.1512292,0.1358268 -0.3513044,0.2185698 -0.57023415,0.2185698 -0.21892971,0 -0.41864178,-0.082319 -0.56987094,-0.2177829 z"
   id="path6"
   style="stroke:#a8cbfe;stroke-opacity:1;fill:none" />
<path
   style="fill:#a8cbfe;stroke-width:0.0279553;fill-opacity:1"
   d="M 1.4389568,1.2397343 1.1458841,1.1180838 c -0.037862,-0.015715 -0.061793,-0.04786 -0.061793,-0.083011 v -0.095466 c 0.00822,-0.00777 0.017673,-0.017778 0.027736,-0.029597 0.039948,-0.0468158 0.070138,-0.0983444 0.091094,-0.15241972 0.037586,-0.009603 0.06526,-0.038436 0.06526,-0.0726949 v -0.1018846 c 0,-0.0224146 -0.011997,-0.0424605 -0.030682,-0.0564697 v -0.1473 c 0,0 0.036419,-0.22924088 -0.33750003,-0.22924088 -0.37395,0 -0.3375,0.22924088 -0.3375,0.22924088 v 0.14730001 c -0.018684,0.0140091 -0.030681,0.034055 -0.030681,0.0564697 v 0.10188482 c 0,0.0268467 0.016998,0.0504585 0.042433,0.064111 0.030651,0.11085069 0.1109761,0.19060099 0.1109761,0.19060099 v 0.093097 c 0,0.033953 -0.022336,0.065206 -0.058265,0.081457 L 0.35324997,1.2381041 C 0.27418299,1.2739421 0.225,1.3427144 0.225,1.4174979 v 0.082502 h 1.35 v -0.077509 c 0,-0.077407 -0.05268,-0.1481405 -0.1360432,-0.1827566 z"
   id="path2720" /></svg>
