<?xml version="1.0" encoding="UTF-8" standalone="no"?>
<!-- Uploaded to: SVG Repo, www.svgrepo.com, Generator: SVG Repo Mixer Tools -->

<svg
   width="24.734997"
   height="24.734997"
   viewBox="0 0 0.98939987 0.98939987"
   version="1.1"
   id="svg462"
   sodipodi:docname="users.svg"
   inkscape:version="1.2.1 (9c6d41e410, 2022-07-14)"
   xmlns:inkscape="http://www.inkscape.org/namespaces/inkscape"
   xmlns:sodipodi="http://sodipodi.sourceforge.net/DTD/sodipodi-0.dtd"
   xmlns="http://www.w3.org/2000/svg"
   xmlns:svg="http://www.w3.org/2000/svg">
  <defs
     id="defs466" />
  <sodipodi:namedview
     id="namedview464"
     pagecolor="#ffffff"
     bordercolor="#000000"
     borderopacity="0.25"
     inkscape:showpageshadow="2"
     inkscape:pageopacity="0.0"
     inkscape:pagecheckerboard="true"
     inkscape:deskcolor="#d1d1d1"
     showgrid="false"
     inkscape:zoom="32.908838"
     inkscape:cx="12.367498"
     inkscape:cy="12.367498"
     inkscape:window-width="1920"
     inkscape:window-height="1017"
     inkscape:window-x="-8"
     inkscape:window-y="-8"
     inkscape:window-maximized="1"
     inkscape:current-layer="svg462" />
  <g
     id="g587"
     transform="matrix(0.03751465,0,0,0.03751465,-0.10553445,-0.10553445)"
     style="fill:#cf6755;fill-opacity:1;stroke:#cf6755;stroke-width:0.783694;stroke-dasharray:none;stroke-opacity:1">
    <g
       id="icomoon-ignore"
       style="fill:#cf6755;fill-opacity:1;stroke:#cf6755;stroke-width:0.783694;stroke-dasharray:none;stroke-opacity:1" />
    <path
       d="M 16,3.205 C 8.933,3.205 3.205,8.933 3.205,16 3.205,23.067 8.933,28.795 16,28.795 23.067,28.795 28.795,23.067 28.795,16 28.795,8.933 23.067,3.205 16,3.205 Z m 0,1.066 c 6.467,0 11.729,5.261 11.729,11.729 0,2.845 -1.019,5.457 -2.711,7.49 -1.169,-0.488 -3.93,-1.446 -5.638,-1.951 -0.146,-0.046 -0.169,-0.053 -0.169,-0.66 0,-0.501 0.206,-1.005 0.407,-1.432 0.218,-0.464 0.476,-1.244 0.569,-1.944 0.259,-0.301 0.612,-0.895 0.839,-2.026 C 21.225,14.48 21.132,14.117 21,13.777 20.986,13.741 20.972,13.706 20.961,13.67 20.911,13.436 20.98,12.222 21.15,11.279 21.268,10.632 21.12,9.257 20.229,8.12 19.667,7.401 18.591,6.519 16.626,6.396 l -1.078,0.001 c -1.932,0.122 -3.008,1.004 -3.57,1.723 -0.89,1.137 -1.038,2.513 -0.92,3.159 0.172,0.943 0.239,2.157 0.191,2.387 -0.01,0.04 -0.025,0.075 -0.04,0.111 -0.131,0.341 -0.225,0.703 -0.025,1.7 0.226,1.131 0.579,1.725 0.839,2.026 0.092,0.7 0.35,1.48 0.569,1.944 0.159,0.339 0.234,0.801 0.234,1.454 0,0.607 -0.023,0.614 -0.159,0.657 C 10.9,22.08 8.088,23.096 7.039,23.555 5.314,21.513 4.271,18.876 4.271,16 4.271,9.533 9.532,4.271 16,4.271 Z M 7.811,24.386 c 1.201,-0.49 3.594,-1.344 5.167,-1.808 0.914,-0.288 0.914,-1.058 0.914,-1.677 0,-0.513 -0.035,-1.269 -0.335,-1.908 -0.206,-0.438 -0.442,-1.189 -0.494,-1.776 -0.011,-0.137 -0.076,-0.265 -0.18,-0.355 -0.151,-0.132 -0.458,-0.616 -0.654,-1.593 -0.155,-0.773 -0.089,-0.942 -0.026,-1.106 0.027,-0.07 0.053,-0.139 0.074,-0.216 0.128,-0.468 -0.015,-2.005 -0.17,-2.858 -0.068,-0.371 0.018,-1.424 0.711,-2.311 0.622,-0.795 1.563,-1.238 2.764,-1.315 l 1.011,-0.001 c 1.233,0.078 2.174,0.521 2.797,1.316 0.694,0.887 0.778,1.94 0.71,2.312 -0.154,0.852 -0.298,2.39 -0.17,2.857 0.022,0.078 0.047,0.147 0.074,0.217 0.064,0.163 0.129,0.333 -0.025,1.106 -0.196,0.977 -0.504,1.461 -0.655,1.593 -0.103,0.091 -0.168,0.218 -0.18,0.355 -0.051,0.588 -0.286,1.338 -0.492,1.776 -0.236,0.502 -0.508,1.171 -0.508,1.886 0,0.619 0,1.389 0.924,1.68 1.505,0.445 3.91,1.271 5.18,1.77 -2.121,2.1 -5.035,3.4 -8.248,3.4 -3.183,0 -6.073,-1.277 -8.188,-3.342 z"
       fill="#000000"
       id="path460"
       style="fill:#cf6755;fill-opacity:1;stroke:#cf6755;stroke-width:0.783694;stroke-dasharray:none;stroke-opacity:1" />
  </g>
</svg>
