<?xml version="1.0" encoding="UTF-8" standalone="no"?>
<!-- Uploaded to: SVG Repo, www.svgrepo.com, Generator: SVG Repo Mixer Tools -->

<svg
   version="1.1"
   id="Layer_1"
   width="23.945917"
   height="24.157898"
   viewBox="0 0 1.7959438 1.8118423"
   enable-background="new 0 0 60 60"
   xml:space="preserve"
   sodipodi:docname="users.svg"
   inkscape:version="1.2.1 (9c6d41e410, 2022-07-14)"
   xmlns:inkscape="http://www.inkscape.org/namespaces/inkscape"
   xmlns:sodipodi="http://sodipodi.sourceforge.net/DTD/sodipodi-0.dtd"
   xmlns="http://www.w3.org/2000/svg"
   xmlns:svg="http://www.w3.org/2000/svg"><defs
   id="defs11" /><sodipodi:namedview
   id="namedview9"
   pagecolor="#ffffff"
   bordercolor="#000000"
   borderopacity="0.25"
   inkscape:showpageshadow="2"
   inkscape:pageopacity="0.0"
   inkscape:pagecheckerboard="true"
   inkscape:deskcolor="#d1d1d1"
   showgrid="false"
   inkscape:zoom="33.694985"
   inkscape:cx="11.960237"
   inkscape:cy="12.078949"
   inkscape:window-width="1920"
   inkscape:window-height="1017"
   inkscape:window-x="-8"
   inkscape:window-y="-8"
   inkscape:window-maximized="1"
   inkscape:current-layer="Layer_1" />


<path
   fill="#cccccc"
   d="m 1.4623381,1.5270413 0.00769,0.00923 C 1.318796,1.6720988 1.1187208,1.7548418 0.89979109,1.7548418 c -0.21892971,0 -0.41864178,-0.08235 -0.56987094,-0.2177829 l 0.008474,-0.010018 c 0,0 0.0996593,-0.079263 0.21702307,-0.108498 0.11736376,-0.029235 0.1704468,-0.111585 0.1704468,-0.111585 v -0.143907 c 0,0 -0.0854352,-0.1142785 -0.073481,-0.19354108 0,0 -0.10580291,-0.0704253 -0.0323219,-0.17314286 0,0 -0.17008363,-0.48828647 0.26126902,-0.49328011 0.10928327,-0.00115 0.16351636,0.0819561 0.16351636,0.0819561 0.2920475,-0.0292354 0.1358248,0.411324 0.1358248,0.411324 0.073481,0.10274778 -0.032322,0.17314286 -0.032322,0.17314286 0.011924,0.0792626 -0.073481,0.19354109 -0.073481,0.19354109 v 0.1439074 c 0,0 0.053113,0.08235 0.1704468,0.111585 0.1173637,0.029235 0.217023,0.108498 0.217023,0.108498 z"
   id="path2"
   style="stroke-width:0.0302642" /><path
   fill="none"
   stroke="#555555"
   stroke-width="0.0907926"
   stroke-linecap="round"
   stroke-linejoin="round"
   stroke-miterlimit="10"
   d="m 1.4623381,1.5270413 c 0,0 -0.099659,-0.079263 -0.217023,-0.108498 C 1.1279513,1.3893079 1.0748683,1.3069583 1.0748683,1.3069583 V 1.1630509 c 0,0 0.085435,-0.1142785 0.073481,-0.19354108 0,0 0.1058029,-0.0704253 0.032322,-0.17314286 0,0 0.1562227,-0.44058972 -0.1358248,-0.411324 0,0 -0.0542633,-0.0831062 -0.16351635,-0.0819561 -0.43135265,0.004994 -0.26126902,0.49328011 -0.26126902,0.49328011 -0.073481,0.10274778 0.0323219,0.17314286 0.0323219,0.17314286 -0.011924,0.0792626 0.073481,0.19354107 0.073481,0.19354107 v 0.1439074 c 0,0 -0.0531133,0.08235 -0.1704468,0.111585 -0.11736375,0.029235 -0.21702307,0.108498 -0.21702307,0.108498"
   id="path4"
   style="stroke:#cccccc;stroke-opacity:1" /><path
   fill="none"
   stroke="#555555"
   stroke-width="0.0907926"
   stroke-miterlimit="10"
   d="M 0.32992015,1.5370286 C 0.1552364,1.3804404 0.04519654,1.1530334 0.04519654,0.90020426 c 0,-0.47212527 0.3824763,-0.85460726 0.85459455,-0.85460726 0.47172481,0 0.85459451,0.38248199 0.85459451,0.85460726 0,0.25279884 -0.1096767,0.47981244 -0.2843604,0.63603744 -0.1512292,0.1358268 -0.3513044,0.2185698 -0.57023411,0.2185698 -0.21892971,0 -0.41864178,-0.082319 -0.56987094,-0.2177829 z"
   id="path6"
   style="stroke:#cccccc;stroke-opacity:1" />
</svg>
