<?xml version="1.0" encoding="UTF-8" standalone="no"?>
<svg
   id="Layer_1"
   data-name="Layer 1"
   viewBox="0 0 24 24"
   version="1.1"
   sodipodi:docname="users.svg"
   width="24"
   height="24"
   inkscape:version="1.2.1 (9c6d41e410, 2022-07-14)"
   xmlns:inkscape="http://www.inkscape.org/namespaces/inkscape"
   xmlns:sodipodi="http://sodipodi.sourceforge.net/DTD/sodipodi-0.dtd"
   xmlns="http://www.w3.org/2000/svg"
   xmlns:svg="http://www.w3.org/2000/svg"
   xmlns:rdf="http://www.w3.org/1999/02/22-rdf-syntax-ns#"
   xmlns:cc="http://creativecommons.org/ns#"
   xmlns:dc="http://purl.org/dc/elements/1.1/">
  <sodipodi:namedview
     id="namedview15"
     pagecolor="#ffffff"
     bordercolor="#000000"
     borderopacity="0.25"
     inkscape:showpageshadow="2"
     inkscape:pageopacity="0.0"
     inkscape:pagecheckerboard="true"
     inkscape:deskcolor="#d1d1d1"
     showgrid="false"
     inkscape:zoom="33.916667"
     inkscape:cx="11.985258"
     inkscape:cy="12"
     inkscape:window-width="1920"
     inkscape:window-height="1017"
     inkscape:window-x="-8"
     inkscape:window-y="-8"
     inkscape:window-maximized="1"
     inkscape:current-layer="Layer_1" />
  <defs
     id="defs4">
    <style
       id="style2">.cls-1{fill:#3b4551;}.cls-2{fill:#2b77c0;}</style>
  </defs>
  <title
     id="title6">a</title>
  <path
     class="cls-1"
     d="M 23.90033,10.424699 A 0.90611462,0.90611462 0 0 0 22.997752,9.649926 H 21.272854 L 21.169339,9.2876207 A 10.941829,10.941829 0 0 0 20.402258,7.4243576 L 20.241127,7.1016045 21.41744,5.9252911 A 0.91561865,0.91561865 0 0 0 21.496205,4.7211415 11.97862,11.97862 0 0 0 19.273638,2.5153589 0.91789194,0.91789194 0 0 0 18.06604,2.5907364 L 16.880819,3.7759567 16.547804,3.5816289 A 9.091129,9.091129 0 0 0 14.702608,2.8282182 L 14.349584,2.7198204 V 1.0233676 A 0.91493705,0.91493705 0 0 0 13.569318,0.11972019 10.801463,10.801463 0 0 0 11.999999,1.2295559e-4 11.666686,11.666686 0 0 0 10.424696,0.09966955 0.90609542,0.90609542 0 0 0 9.6499236,1.0022475 V 2.7276348 L 9.2871344,2.8311501 A 10.983156,10.983156 0 0 0 7.4233837,3.5972559 L 7.1011221,3.7583867 5.9247339,2.5823422 a 0.91558409,0.91558409 0 0 0 -1.203998,-0.078734 11.95539,11.95539 0 0 0 -2.2057788,2.2227536 0.9178881,0.9178881 0 0 0 0.07556,1.2073541 l 1.185443,1.1854737 -0.1943335,0.333006 A 9.1544009,9.1544009 0 0 0 2.8277282,9.2969039 L 2.7188427,9.6499279 H 1.0233038 A 0.91502345,0.91502345 0 0 0 0.11959683,10.43053 10.830866,10.830866 0 0 0 1.2056559e-4,12.000001 11.694541,11.694541 0 0 0 0.09945404,13.575027 0.9060935,0.9060935 0 0 0 1.0020627,14.350074 h 1.7245925 l 0.1035152,0.362305 a 10.941829,10.941829 0 0 0 0.7670812,1.863263 l 0.1611308,0.322754 -1.1762865,1.17628 a 0.91558601,0.91558601 0 0 0 -0.078795,1.20415 11.978618,11.978618 0 0 0 2.2225731,2.205788 0.91789194,0.91789194 0 0 0 1.2075979,-0.07538 l 1.1852203,-1.185199 0.333004,0.194333 a 9.1250459,9.1250459 0 0 0 1.8451958,0.753411 l 0.353024,0.108398 v 1.696424 a 0.91493705,0.91493705 0 0 0 0.780266,0.903647 10.800678,10.800678 0 0 0 1.569817,0.119628 11.66168,11.66168 0 0 0 1.574812,-0.09958 0.90609542,0.90609542 0 0 0 0.774773,-0.902578 v -1.725357 l 0.362789,-0.103515 a 10.983158,10.983158 0 0 0 1.863751,-0.766106 l 0.322261,-0.161131 1.176389,1.176045 a 0.91561865,0.91561865 0 0 0 1.203998,0.0787 11.956134,11.956134 0 0 0 2.205788,-2.222725 0.91789194,0.91789194 0 0 0 -0.07557,-1.207377 l -1.185443,-1.185443 0.194336,-0.333014 a 9.1544009,9.1544009 0 0 0 0.753898,-1.844708 l 0.108886,-0.353024 h 1.69575 a 0.91505993,0.91505993 0 0 0 0.903678,-0.780483 10.811081,10.811081 0 0 0 0.11978,-1.56959 11.666031,11.666031 0 0 0 -0.09955,-1.575302 z m -11.900331,8.207682 a 6.632395,6.632395 0 1 1 6.632379,-6.63238 6.6323854,6.6323854 0 0 1 -6.632379,6.63238 z"
     id="path8"
     style="stroke-width:0.192001;fill:#969696;fill-opacity:1" />
  <path
     class="cls-2"
     d="m 16.310074,13.499526 -2.359961,-0.629996 -1.849988,1.349999 -1.800006,-1.349993 -2.5149599,0.635003 a 0.7391009,0.7391009 0 0 0 -0.5299929,0.554988 l -0.1200005,0.894981 a 5.6870739,5.6870739 0 0 0 9.7898793,-0.104981 l -0.09,-0.779991 a 0.72204163,0.72204163 0 0 0 -0.524976,-0.57001 z"
     id="path10"
     style="stroke-width:0.192001;fill:#bebec0;fill-opacity:1" />
  <path
     class="cls-2"
     d="m 11.736848,12.226754 c 0.08511,0.0054 0.489468,0.007 0.596308,-0.0067 1.191485,-0.153868 1.852123,-2.2450336 1.852123,-3.3525972 a 2.1852962,2.1852962 0 1 0 -4.370592,0 c 0,1.1290389 0.686554,3.2803242 1.922161,3.3593422 z"
     id="path12"
     style="stroke-width:0.192001;fill:#bebeff;fill-opacity:1" />
  <metadata
     id="metadata803">
    <rdf:RDF>
      <cc:Work
         rdf:about="">
        <dc:title>a</dc:title>
      </cc:Work>
    </rdf:RDF>
  </metadata>
</svg>
